G04 #@! TF.GenerationSoftware,KiCad,Pcbnew,(5.0.0)*
G04 #@! TF.CreationDate,2018-10-07T14:33:42+02:00*
G04 #@! TF.ProjectId,LED-panel,4C45442D70616E656C2E6B696361645F,rev?*
G04 #@! TF.SameCoordinates,Original*
G04 #@! TF.FileFunction,Copper,L1,Top,Signal*
G04 #@! TF.FilePolarity,Positive*
%FSLAX46Y46*%
G04 Gerber Fmt 4.6, Leading zero omitted, Abs format (unit mm)*
G04 Created by KiCad (PCBNEW (5.0.0)) date 10/07/18 14:33:42*
%MOMM*%
%LPD*%
G01*
G04 APERTURE LIST*
G04 #@! TA.AperFunction,SMDPad,CuDef*
%ADD10R,0.880000X0.800000*%
G04 #@! TD*
G04 #@! TA.AperFunction,SMDPad,CuDef*
%ADD11R,1.500000X0.800000*%
G04 #@! TD*
G04 #@! TA.AperFunction,ComponentPad*
%ADD12R,1.700000X1.700000*%
G04 #@! TD*
G04 #@! TA.AperFunction,ComponentPad*
%ADD13O,1.700000X1.700000*%
G04 #@! TD*
G04 #@! TA.AperFunction,Conductor*
%ADD14C,0.100000*%
G04 #@! TD*
G04 #@! TA.AperFunction,SMDPad,CuDef*
%ADD15C,1.250000*%
G04 #@! TD*
G04 #@! TA.AperFunction,Conductor*
%ADD16C,0.800000*%
G04 #@! TD*
G04 #@! TA.AperFunction,Conductor*
%ADD17C,1.000000*%
G04 #@! TD*
G04 APERTURE END LIST*
D10*
G04 #@! TO.P,D1,2*
G04 #@! TO.N,Net-(D1-Pad2)*
X28575000Y-38100000D03*
D11*
G04 #@! TO.P,D1,1*
G04 #@! TO.N,Net-(D1-Pad1)*
X30395000Y-38100000D03*
G04 #@! TD*
G04 #@! TO.P,D2,1*
G04 #@! TO.N,Net-(D2-Pad1)*
X30395000Y-40640000D03*
D10*
G04 #@! TO.P,D2,2*
G04 #@! TO.N,Net-(D2-Pad2)*
X28575000Y-40640000D03*
G04 #@! TD*
G04 #@! TO.P,D3,2*
G04 #@! TO.N,Net-(D3-Pad2)*
X28575000Y-43180000D03*
D11*
G04 #@! TO.P,D3,1*
G04 #@! TO.N,Net-(D3-Pad1)*
X30395000Y-43180000D03*
G04 #@! TD*
G04 #@! TO.P,D4,1*
G04 #@! TO.N,Net-(D4-Pad1)*
X30395000Y-45720000D03*
D10*
G04 #@! TO.P,D4,2*
G04 #@! TO.N,Net-(D4-Pad2)*
X28575000Y-45720000D03*
G04 #@! TD*
G04 #@! TO.P,D5,2*
G04 #@! TO.N,Net-(D5-Pad2)*
X28575000Y-48260000D03*
D11*
G04 #@! TO.P,D5,1*
G04 #@! TO.N,Net-(D5-Pad1)*
X30395000Y-48260000D03*
G04 #@! TD*
G04 #@! TO.P,D6,1*
G04 #@! TO.N,Net-(D6-Pad1)*
X30395000Y-50800000D03*
D10*
G04 #@! TO.P,D6,2*
G04 #@! TO.N,Net-(D6-Pad2)*
X28575000Y-50800000D03*
G04 #@! TD*
G04 #@! TO.P,D7,2*
G04 #@! TO.N,Net-(D7-Pad2)*
X28575000Y-53340000D03*
D11*
G04 #@! TO.P,D7,1*
G04 #@! TO.N,Net-(D7-Pad1)*
X30395000Y-53340000D03*
G04 #@! TD*
G04 #@! TO.P,D8,1*
G04 #@! TO.N,Net-(D8-Pad1)*
X30395000Y-55880000D03*
D10*
G04 #@! TO.P,D8,2*
G04 #@! TO.N,Net-(D8-Pad2)*
X28575000Y-55880000D03*
G04 #@! TD*
G04 #@! TO.P,D9,2*
G04 #@! TO.N,Net-(D9-Pad2)*
X28575000Y-58420000D03*
D11*
G04 #@! TO.P,D9,1*
G04 #@! TO.N,Net-(D9-Pad1)*
X30395000Y-58420000D03*
G04 #@! TD*
G04 #@! TO.P,D10,1*
G04 #@! TO.N,Net-(D10-Pad1)*
X30395000Y-60960000D03*
D10*
G04 #@! TO.P,D10,2*
G04 #@! TO.N,Net-(D10-Pad2)*
X28575000Y-60960000D03*
G04 #@! TD*
G04 #@! TO.P,D11,2*
G04 #@! TO.N,Net-(D11-Pad2)*
X28575000Y-63500000D03*
D11*
G04 #@! TO.P,D11,1*
G04 #@! TO.N,Net-(D11-Pad1)*
X30395000Y-63500000D03*
G04 #@! TD*
D12*
G04 #@! TO.P,J1,1*
G04 #@! TO.N,GND*
X25400000Y-35560000D03*
D13*
G04 #@! TO.P,J1,2*
G04 #@! TO.N,Net-(D1-Pad2)*
X25400000Y-38100000D03*
G04 #@! TO.P,J1,3*
G04 #@! TO.N,Net-(D2-Pad2)*
X25400000Y-40640000D03*
G04 #@! TO.P,J1,4*
G04 #@! TO.N,Net-(D3-Pad2)*
X25400000Y-43180000D03*
G04 #@! TO.P,J1,5*
G04 #@! TO.N,Net-(D4-Pad2)*
X25400000Y-45720000D03*
G04 #@! TO.P,J1,6*
G04 #@! TO.N,Net-(D5-Pad2)*
X25400000Y-48260000D03*
G04 #@! TO.P,J1,7*
G04 #@! TO.N,Net-(D6-Pad2)*
X25400000Y-50800000D03*
G04 #@! TO.P,J1,8*
G04 #@! TO.N,Net-(D7-Pad2)*
X25400000Y-53340000D03*
G04 #@! TO.P,J1,9*
G04 #@! TO.N,Net-(D8-Pad2)*
X25400000Y-55880000D03*
G04 #@! TO.P,J1,10*
G04 #@! TO.N,Net-(D9-Pad2)*
X25400000Y-58420000D03*
G04 #@! TO.P,J1,11*
G04 #@! TO.N,Net-(D10-Pad2)*
X25400000Y-60960000D03*
G04 #@! TO.P,J1,12*
G04 #@! TO.N,Net-(D11-Pad2)*
X25400000Y-63500000D03*
G04 #@! TD*
D14*
G04 #@! TO.N,GND*
G04 #@! TO.C,R1*
G36*
X36219504Y-37226204D02*
X36243773Y-37229804D01*
X36267571Y-37235765D01*
X36290671Y-37244030D01*
X36312849Y-37254520D01*
X36333893Y-37267133D01*
X36353598Y-37281747D01*
X36371777Y-37298223D01*
X36388253Y-37316402D01*
X36402867Y-37336107D01*
X36415480Y-37357151D01*
X36425970Y-37379329D01*
X36434235Y-37402429D01*
X36440196Y-37426227D01*
X36443796Y-37450496D01*
X36445000Y-37475000D01*
X36445000Y-38725000D01*
X36443796Y-38749504D01*
X36440196Y-38773773D01*
X36434235Y-38797571D01*
X36425970Y-38820671D01*
X36415480Y-38842849D01*
X36402867Y-38863893D01*
X36388253Y-38883598D01*
X36371777Y-38901777D01*
X36353598Y-38918253D01*
X36333893Y-38932867D01*
X36312849Y-38945480D01*
X36290671Y-38955970D01*
X36267571Y-38964235D01*
X36243773Y-38970196D01*
X36219504Y-38973796D01*
X36195000Y-38975000D01*
X35445000Y-38975000D01*
X35420496Y-38973796D01*
X35396227Y-38970196D01*
X35372429Y-38964235D01*
X35349329Y-38955970D01*
X35327151Y-38945480D01*
X35306107Y-38932867D01*
X35286402Y-38918253D01*
X35268223Y-38901777D01*
X35251747Y-38883598D01*
X35237133Y-38863893D01*
X35224520Y-38842849D01*
X35214030Y-38820671D01*
X35205765Y-38797571D01*
X35199804Y-38773773D01*
X35196204Y-38749504D01*
X35195000Y-38725000D01*
X35195000Y-37475000D01*
X35196204Y-37450496D01*
X35199804Y-37426227D01*
X35205765Y-37402429D01*
X35214030Y-37379329D01*
X35224520Y-37357151D01*
X35237133Y-37336107D01*
X35251747Y-37316402D01*
X35268223Y-37298223D01*
X35286402Y-37281747D01*
X35306107Y-37267133D01*
X35327151Y-37254520D01*
X35349329Y-37244030D01*
X35372429Y-37235765D01*
X35396227Y-37229804D01*
X35420496Y-37226204D01*
X35445000Y-37225000D01*
X36195000Y-37225000D01*
X36219504Y-37226204D01*
X36219504Y-37226204D01*
G37*
D15*
G04 #@! TD*
G04 #@! TO.P,R1,2*
G04 #@! TO.N,GND*
X35820000Y-38100000D03*
D14*
G04 #@! TO.N,Net-(D1-Pad1)*
G04 #@! TO.C,R1*
G36*
X33419504Y-37226204D02*
X33443773Y-37229804D01*
X33467571Y-37235765D01*
X33490671Y-37244030D01*
X33512849Y-37254520D01*
X33533893Y-37267133D01*
X33553598Y-37281747D01*
X33571777Y-37298223D01*
X33588253Y-37316402D01*
X33602867Y-37336107D01*
X33615480Y-37357151D01*
X33625970Y-37379329D01*
X33634235Y-37402429D01*
X33640196Y-37426227D01*
X33643796Y-37450496D01*
X33645000Y-37475000D01*
X33645000Y-38725000D01*
X33643796Y-38749504D01*
X33640196Y-38773773D01*
X33634235Y-38797571D01*
X33625970Y-38820671D01*
X33615480Y-38842849D01*
X33602867Y-38863893D01*
X33588253Y-38883598D01*
X33571777Y-38901777D01*
X33553598Y-38918253D01*
X33533893Y-38932867D01*
X33512849Y-38945480D01*
X33490671Y-38955970D01*
X33467571Y-38964235D01*
X33443773Y-38970196D01*
X33419504Y-38973796D01*
X33395000Y-38975000D01*
X32645000Y-38975000D01*
X32620496Y-38973796D01*
X32596227Y-38970196D01*
X32572429Y-38964235D01*
X32549329Y-38955970D01*
X32527151Y-38945480D01*
X32506107Y-38932867D01*
X32486402Y-38918253D01*
X32468223Y-38901777D01*
X32451747Y-38883598D01*
X32437133Y-38863893D01*
X32424520Y-38842849D01*
X32414030Y-38820671D01*
X32405765Y-38797571D01*
X32399804Y-38773773D01*
X32396204Y-38749504D01*
X32395000Y-38725000D01*
X32395000Y-37475000D01*
X32396204Y-37450496D01*
X32399804Y-37426227D01*
X32405765Y-37402429D01*
X32414030Y-37379329D01*
X32424520Y-37357151D01*
X32437133Y-37336107D01*
X32451747Y-37316402D01*
X32468223Y-37298223D01*
X32486402Y-37281747D01*
X32506107Y-37267133D01*
X32527151Y-37254520D01*
X32549329Y-37244030D01*
X32572429Y-37235765D01*
X32596227Y-37229804D01*
X32620496Y-37226204D01*
X32645000Y-37225000D01*
X33395000Y-37225000D01*
X33419504Y-37226204D01*
X33419504Y-37226204D01*
G37*
D15*
G04 #@! TD*
G04 #@! TO.P,R1,1*
G04 #@! TO.N,Net-(D1-Pad1)*
X33020000Y-38100000D03*
D14*
G04 #@! TO.N,Net-(D2-Pad1)*
G04 #@! TO.C,R2*
G36*
X33419504Y-39766204D02*
X33443773Y-39769804D01*
X33467571Y-39775765D01*
X33490671Y-39784030D01*
X33512849Y-39794520D01*
X33533893Y-39807133D01*
X33553598Y-39821747D01*
X33571777Y-39838223D01*
X33588253Y-39856402D01*
X33602867Y-39876107D01*
X33615480Y-39897151D01*
X33625970Y-39919329D01*
X33634235Y-39942429D01*
X33640196Y-39966227D01*
X33643796Y-39990496D01*
X33645000Y-40015000D01*
X33645000Y-41265000D01*
X33643796Y-41289504D01*
X33640196Y-41313773D01*
X33634235Y-41337571D01*
X33625970Y-41360671D01*
X33615480Y-41382849D01*
X33602867Y-41403893D01*
X33588253Y-41423598D01*
X33571777Y-41441777D01*
X33553598Y-41458253D01*
X33533893Y-41472867D01*
X33512849Y-41485480D01*
X33490671Y-41495970D01*
X33467571Y-41504235D01*
X33443773Y-41510196D01*
X33419504Y-41513796D01*
X33395000Y-41515000D01*
X32645000Y-41515000D01*
X32620496Y-41513796D01*
X32596227Y-41510196D01*
X32572429Y-41504235D01*
X32549329Y-41495970D01*
X32527151Y-41485480D01*
X32506107Y-41472867D01*
X32486402Y-41458253D01*
X32468223Y-41441777D01*
X32451747Y-41423598D01*
X32437133Y-41403893D01*
X32424520Y-41382849D01*
X32414030Y-41360671D01*
X32405765Y-41337571D01*
X32399804Y-41313773D01*
X32396204Y-41289504D01*
X32395000Y-41265000D01*
X32395000Y-40015000D01*
X32396204Y-39990496D01*
X32399804Y-39966227D01*
X32405765Y-39942429D01*
X32414030Y-39919329D01*
X32424520Y-39897151D01*
X32437133Y-39876107D01*
X32451747Y-39856402D01*
X32468223Y-39838223D01*
X32486402Y-39821747D01*
X32506107Y-39807133D01*
X32527151Y-39794520D01*
X32549329Y-39784030D01*
X32572429Y-39775765D01*
X32596227Y-39769804D01*
X32620496Y-39766204D01*
X32645000Y-39765000D01*
X33395000Y-39765000D01*
X33419504Y-39766204D01*
X33419504Y-39766204D01*
G37*
D15*
G04 #@! TD*
G04 #@! TO.P,R2,1*
G04 #@! TO.N,Net-(D2-Pad1)*
X33020000Y-40640000D03*
D14*
G04 #@! TO.N,GND*
G04 #@! TO.C,R2*
G36*
X36219504Y-39766204D02*
X36243773Y-39769804D01*
X36267571Y-39775765D01*
X36290671Y-39784030D01*
X36312849Y-39794520D01*
X36333893Y-39807133D01*
X36353598Y-39821747D01*
X36371777Y-39838223D01*
X36388253Y-39856402D01*
X36402867Y-39876107D01*
X36415480Y-39897151D01*
X36425970Y-39919329D01*
X36434235Y-39942429D01*
X36440196Y-39966227D01*
X36443796Y-39990496D01*
X36445000Y-40015000D01*
X36445000Y-41265000D01*
X36443796Y-41289504D01*
X36440196Y-41313773D01*
X36434235Y-41337571D01*
X36425970Y-41360671D01*
X36415480Y-41382849D01*
X36402867Y-41403893D01*
X36388253Y-41423598D01*
X36371777Y-41441777D01*
X36353598Y-41458253D01*
X36333893Y-41472867D01*
X36312849Y-41485480D01*
X36290671Y-41495970D01*
X36267571Y-41504235D01*
X36243773Y-41510196D01*
X36219504Y-41513796D01*
X36195000Y-41515000D01*
X35445000Y-41515000D01*
X35420496Y-41513796D01*
X35396227Y-41510196D01*
X35372429Y-41504235D01*
X35349329Y-41495970D01*
X35327151Y-41485480D01*
X35306107Y-41472867D01*
X35286402Y-41458253D01*
X35268223Y-41441777D01*
X35251747Y-41423598D01*
X35237133Y-41403893D01*
X35224520Y-41382849D01*
X35214030Y-41360671D01*
X35205765Y-41337571D01*
X35199804Y-41313773D01*
X35196204Y-41289504D01*
X35195000Y-41265000D01*
X35195000Y-40015000D01*
X35196204Y-39990496D01*
X35199804Y-39966227D01*
X35205765Y-39942429D01*
X35214030Y-39919329D01*
X35224520Y-39897151D01*
X35237133Y-39876107D01*
X35251747Y-39856402D01*
X35268223Y-39838223D01*
X35286402Y-39821747D01*
X35306107Y-39807133D01*
X35327151Y-39794520D01*
X35349329Y-39784030D01*
X35372429Y-39775765D01*
X35396227Y-39769804D01*
X35420496Y-39766204D01*
X35445000Y-39765000D01*
X36195000Y-39765000D01*
X36219504Y-39766204D01*
X36219504Y-39766204D01*
G37*
D15*
G04 #@! TD*
G04 #@! TO.P,R2,2*
G04 #@! TO.N,GND*
X35820000Y-40640000D03*
D14*
G04 #@! TO.N,GND*
G04 #@! TO.C,R3*
G36*
X36219504Y-42306204D02*
X36243773Y-42309804D01*
X36267571Y-42315765D01*
X36290671Y-42324030D01*
X36312849Y-42334520D01*
X36333893Y-42347133D01*
X36353598Y-42361747D01*
X36371777Y-42378223D01*
X36388253Y-42396402D01*
X36402867Y-42416107D01*
X36415480Y-42437151D01*
X36425970Y-42459329D01*
X36434235Y-42482429D01*
X36440196Y-42506227D01*
X36443796Y-42530496D01*
X36445000Y-42555000D01*
X36445000Y-43805000D01*
X36443796Y-43829504D01*
X36440196Y-43853773D01*
X36434235Y-43877571D01*
X36425970Y-43900671D01*
X36415480Y-43922849D01*
X36402867Y-43943893D01*
X36388253Y-43963598D01*
X36371777Y-43981777D01*
X36353598Y-43998253D01*
X36333893Y-44012867D01*
X36312849Y-44025480D01*
X36290671Y-44035970D01*
X36267571Y-44044235D01*
X36243773Y-44050196D01*
X36219504Y-44053796D01*
X36195000Y-44055000D01*
X35445000Y-44055000D01*
X35420496Y-44053796D01*
X35396227Y-44050196D01*
X35372429Y-44044235D01*
X35349329Y-44035970D01*
X35327151Y-44025480D01*
X35306107Y-44012867D01*
X35286402Y-43998253D01*
X35268223Y-43981777D01*
X35251747Y-43963598D01*
X35237133Y-43943893D01*
X35224520Y-43922849D01*
X35214030Y-43900671D01*
X35205765Y-43877571D01*
X35199804Y-43853773D01*
X35196204Y-43829504D01*
X35195000Y-43805000D01*
X35195000Y-42555000D01*
X35196204Y-42530496D01*
X35199804Y-42506227D01*
X35205765Y-42482429D01*
X35214030Y-42459329D01*
X35224520Y-42437151D01*
X35237133Y-42416107D01*
X35251747Y-42396402D01*
X35268223Y-42378223D01*
X35286402Y-42361747D01*
X35306107Y-42347133D01*
X35327151Y-42334520D01*
X35349329Y-42324030D01*
X35372429Y-42315765D01*
X35396227Y-42309804D01*
X35420496Y-42306204D01*
X35445000Y-42305000D01*
X36195000Y-42305000D01*
X36219504Y-42306204D01*
X36219504Y-42306204D01*
G37*
D15*
G04 #@! TD*
G04 #@! TO.P,R3,2*
G04 #@! TO.N,GND*
X35820000Y-43180000D03*
D14*
G04 #@! TO.N,Net-(D3-Pad1)*
G04 #@! TO.C,R3*
G36*
X33419504Y-42306204D02*
X33443773Y-42309804D01*
X33467571Y-42315765D01*
X33490671Y-42324030D01*
X33512849Y-42334520D01*
X33533893Y-42347133D01*
X33553598Y-42361747D01*
X33571777Y-42378223D01*
X33588253Y-42396402D01*
X33602867Y-42416107D01*
X33615480Y-42437151D01*
X33625970Y-42459329D01*
X33634235Y-42482429D01*
X33640196Y-42506227D01*
X33643796Y-42530496D01*
X33645000Y-42555000D01*
X33645000Y-43805000D01*
X33643796Y-43829504D01*
X33640196Y-43853773D01*
X33634235Y-43877571D01*
X33625970Y-43900671D01*
X33615480Y-43922849D01*
X33602867Y-43943893D01*
X33588253Y-43963598D01*
X33571777Y-43981777D01*
X33553598Y-43998253D01*
X33533893Y-44012867D01*
X33512849Y-44025480D01*
X33490671Y-44035970D01*
X33467571Y-44044235D01*
X33443773Y-44050196D01*
X33419504Y-44053796D01*
X33395000Y-44055000D01*
X32645000Y-44055000D01*
X32620496Y-44053796D01*
X32596227Y-44050196D01*
X32572429Y-44044235D01*
X32549329Y-44035970D01*
X32527151Y-44025480D01*
X32506107Y-44012867D01*
X32486402Y-43998253D01*
X32468223Y-43981777D01*
X32451747Y-43963598D01*
X32437133Y-43943893D01*
X32424520Y-43922849D01*
X32414030Y-43900671D01*
X32405765Y-43877571D01*
X32399804Y-43853773D01*
X32396204Y-43829504D01*
X32395000Y-43805000D01*
X32395000Y-42555000D01*
X32396204Y-42530496D01*
X32399804Y-42506227D01*
X32405765Y-42482429D01*
X32414030Y-42459329D01*
X32424520Y-42437151D01*
X32437133Y-42416107D01*
X32451747Y-42396402D01*
X32468223Y-42378223D01*
X32486402Y-42361747D01*
X32506107Y-42347133D01*
X32527151Y-42334520D01*
X32549329Y-42324030D01*
X32572429Y-42315765D01*
X32596227Y-42309804D01*
X32620496Y-42306204D01*
X32645000Y-42305000D01*
X33395000Y-42305000D01*
X33419504Y-42306204D01*
X33419504Y-42306204D01*
G37*
D15*
G04 #@! TD*
G04 #@! TO.P,R3,1*
G04 #@! TO.N,Net-(D3-Pad1)*
X33020000Y-43180000D03*
D14*
G04 #@! TO.N,Net-(D4-Pad1)*
G04 #@! TO.C,R4*
G36*
X33419504Y-44846204D02*
X33443773Y-44849804D01*
X33467571Y-44855765D01*
X33490671Y-44864030D01*
X33512849Y-44874520D01*
X33533893Y-44887133D01*
X33553598Y-44901747D01*
X33571777Y-44918223D01*
X33588253Y-44936402D01*
X33602867Y-44956107D01*
X33615480Y-44977151D01*
X33625970Y-44999329D01*
X33634235Y-45022429D01*
X33640196Y-45046227D01*
X33643796Y-45070496D01*
X33645000Y-45095000D01*
X33645000Y-46345000D01*
X33643796Y-46369504D01*
X33640196Y-46393773D01*
X33634235Y-46417571D01*
X33625970Y-46440671D01*
X33615480Y-46462849D01*
X33602867Y-46483893D01*
X33588253Y-46503598D01*
X33571777Y-46521777D01*
X33553598Y-46538253D01*
X33533893Y-46552867D01*
X33512849Y-46565480D01*
X33490671Y-46575970D01*
X33467571Y-46584235D01*
X33443773Y-46590196D01*
X33419504Y-46593796D01*
X33395000Y-46595000D01*
X32645000Y-46595000D01*
X32620496Y-46593796D01*
X32596227Y-46590196D01*
X32572429Y-46584235D01*
X32549329Y-46575970D01*
X32527151Y-46565480D01*
X32506107Y-46552867D01*
X32486402Y-46538253D01*
X32468223Y-46521777D01*
X32451747Y-46503598D01*
X32437133Y-46483893D01*
X32424520Y-46462849D01*
X32414030Y-46440671D01*
X32405765Y-46417571D01*
X32399804Y-46393773D01*
X32396204Y-46369504D01*
X32395000Y-46345000D01*
X32395000Y-45095000D01*
X32396204Y-45070496D01*
X32399804Y-45046227D01*
X32405765Y-45022429D01*
X32414030Y-44999329D01*
X32424520Y-44977151D01*
X32437133Y-44956107D01*
X32451747Y-44936402D01*
X32468223Y-44918223D01*
X32486402Y-44901747D01*
X32506107Y-44887133D01*
X32527151Y-44874520D01*
X32549329Y-44864030D01*
X32572429Y-44855765D01*
X32596227Y-44849804D01*
X32620496Y-44846204D01*
X32645000Y-44845000D01*
X33395000Y-44845000D01*
X33419504Y-44846204D01*
X33419504Y-44846204D01*
G37*
D15*
G04 #@! TD*
G04 #@! TO.P,R4,1*
G04 #@! TO.N,Net-(D4-Pad1)*
X33020000Y-45720000D03*
D14*
G04 #@! TO.N,GND*
G04 #@! TO.C,R4*
G36*
X36219504Y-44846204D02*
X36243773Y-44849804D01*
X36267571Y-44855765D01*
X36290671Y-44864030D01*
X36312849Y-44874520D01*
X36333893Y-44887133D01*
X36353598Y-44901747D01*
X36371777Y-44918223D01*
X36388253Y-44936402D01*
X36402867Y-44956107D01*
X36415480Y-44977151D01*
X36425970Y-44999329D01*
X36434235Y-45022429D01*
X36440196Y-45046227D01*
X36443796Y-45070496D01*
X36445000Y-45095000D01*
X36445000Y-46345000D01*
X36443796Y-46369504D01*
X36440196Y-46393773D01*
X36434235Y-46417571D01*
X36425970Y-46440671D01*
X36415480Y-46462849D01*
X36402867Y-46483893D01*
X36388253Y-46503598D01*
X36371777Y-46521777D01*
X36353598Y-46538253D01*
X36333893Y-46552867D01*
X36312849Y-46565480D01*
X36290671Y-46575970D01*
X36267571Y-46584235D01*
X36243773Y-46590196D01*
X36219504Y-46593796D01*
X36195000Y-46595000D01*
X35445000Y-46595000D01*
X35420496Y-46593796D01*
X35396227Y-46590196D01*
X35372429Y-46584235D01*
X35349329Y-46575970D01*
X35327151Y-46565480D01*
X35306107Y-46552867D01*
X35286402Y-46538253D01*
X35268223Y-46521777D01*
X35251747Y-46503598D01*
X35237133Y-46483893D01*
X35224520Y-46462849D01*
X35214030Y-46440671D01*
X35205765Y-46417571D01*
X35199804Y-46393773D01*
X35196204Y-46369504D01*
X35195000Y-46345000D01*
X35195000Y-45095000D01*
X35196204Y-45070496D01*
X35199804Y-45046227D01*
X35205765Y-45022429D01*
X35214030Y-44999329D01*
X35224520Y-44977151D01*
X35237133Y-44956107D01*
X35251747Y-44936402D01*
X35268223Y-44918223D01*
X35286402Y-44901747D01*
X35306107Y-44887133D01*
X35327151Y-44874520D01*
X35349329Y-44864030D01*
X35372429Y-44855765D01*
X35396227Y-44849804D01*
X35420496Y-44846204D01*
X35445000Y-44845000D01*
X36195000Y-44845000D01*
X36219504Y-44846204D01*
X36219504Y-44846204D01*
G37*
D15*
G04 #@! TD*
G04 #@! TO.P,R4,2*
G04 #@! TO.N,GND*
X35820000Y-45720000D03*
D14*
G04 #@! TO.N,GND*
G04 #@! TO.C,R5*
G36*
X36219504Y-47386204D02*
X36243773Y-47389804D01*
X36267571Y-47395765D01*
X36290671Y-47404030D01*
X36312849Y-47414520D01*
X36333893Y-47427133D01*
X36353598Y-47441747D01*
X36371777Y-47458223D01*
X36388253Y-47476402D01*
X36402867Y-47496107D01*
X36415480Y-47517151D01*
X36425970Y-47539329D01*
X36434235Y-47562429D01*
X36440196Y-47586227D01*
X36443796Y-47610496D01*
X36445000Y-47635000D01*
X36445000Y-48885000D01*
X36443796Y-48909504D01*
X36440196Y-48933773D01*
X36434235Y-48957571D01*
X36425970Y-48980671D01*
X36415480Y-49002849D01*
X36402867Y-49023893D01*
X36388253Y-49043598D01*
X36371777Y-49061777D01*
X36353598Y-49078253D01*
X36333893Y-49092867D01*
X36312849Y-49105480D01*
X36290671Y-49115970D01*
X36267571Y-49124235D01*
X36243773Y-49130196D01*
X36219504Y-49133796D01*
X36195000Y-49135000D01*
X35445000Y-49135000D01*
X35420496Y-49133796D01*
X35396227Y-49130196D01*
X35372429Y-49124235D01*
X35349329Y-49115970D01*
X35327151Y-49105480D01*
X35306107Y-49092867D01*
X35286402Y-49078253D01*
X35268223Y-49061777D01*
X35251747Y-49043598D01*
X35237133Y-49023893D01*
X35224520Y-49002849D01*
X35214030Y-48980671D01*
X35205765Y-48957571D01*
X35199804Y-48933773D01*
X35196204Y-48909504D01*
X35195000Y-48885000D01*
X35195000Y-47635000D01*
X35196204Y-47610496D01*
X35199804Y-47586227D01*
X35205765Y-47562429D01*
X35214030Y-47539329D01*
X35224520Y-47517151D01*
X35237133Y-47496107D01*
X35251747Y-47476402D01*
X35268223Y-47458223D01*
X35286402Y-47441747D01*
X35306107Y-47427133D01*
X35327151Y-47414520D01*
X35349329Y-47404030D01*
X35372429Y-47395765D01*
X35396227Y-47389804D01*
X35420496Y-47386204D01*
X35445000Y-47385000D01*
X36195000Y-47385000D01*
X36219504Y-47386204D01*
X36219504Y-47386204D01*
G37*
D15*
G04 #@! TD*
G04 #@! TO.P,R5,2*
G04 #@! TO.N,GND*
X35820000Y-48260000D03*
D14*
G04 #@! TO.N,Net-(D5-Pad1)*
G04 #@! TO.C,R5*
G36*
X33419504Y-47386204D02*
X33443773Y-47389804D01*
X33467571Y-47395765D01*
X33490671Y-47404030D01*
X33512849Y-47414520D01*
X33533893Y-47427133D01*
X33553598Y-47441747D01*
X33571777Y-47458223D01*
X33588253Y-47476402D01*
X33602867Y-47496107D01*
X33615480Y-47517151D01*
X33625970Y-47539329D01*
X33634235Y-47562429D01*
X33640196Y-47586227D01*
X33643796Y-47610496D01*
X33645000Y-47635000D01*
X33645000Y-48885000D01*
X33643796Y-48909504D01*
X33640196Y-48933773D01*
X33634235Y-48957571D01*
X33625970Y-48980671D01*
X33615480Y-49002849D01*
X33602867Y-49023893D01*
X33588253Y-49043598D01*
X33571777Y-49061777D01*
X33553598Y-49078253D01*
X33533893Y-49092867D01*
X33512849Y-49105480D01*
X33490671Y-49115970D01*
X33467571Y-49124235D01*
X33443773Y-49130196D01*
X33419504Y-49133796D01*
X33395000Y-49135000D01*
X32645000Y-49135000D01*
X32620496Y-49133796D01*
X32596227Y-49130196D01*
X32572429Y-49124235D01*
X32549329Y-49115970D01*
X32527151Y-49105480D01*
X32506107Y-49092867D01*
X32486402Y-49078253D01*
X32468223Y-49061777D01*
X32451747Y-49043598D01*
X32437133Y-49023893D01*
X32424520Y-49002849D01*
X32414030Y-48980671D01*
X32405765Y-48957571D01*
X32399804Y-48933773D01*
X32396204Y-48909504D01*
X32395000Y-48885000D01*
X32395000Y-47635000D01*
X32396204Y-47610496D01*
X32399804Y-47586227D01*
X32405765Y-47562429D01*
X32414030Y-47539329D01*
X32424520Y-47517151D01*
X32437133Y-47496107D01*
X32451747Y-47476402D01*
X32468223Y-47458223D01*
X32486402Y-47441747D01*
X32506107Y-47427133D01*
X32527151Y-47414520D01*
X32549329Y-47404030D01*
X32572429Y-47395765D01*
X32596227Y-47389804D01*
X32620496Y-47386204D01*
X32645000Y-47385000D01*
X33395000Y-47385000D01*
X33419504Y-47386204D01*
X33419504Y-47386204D01*
G37*
D15*
G04 #@! TD*
G04 #@! TO.P,R5,1*
G04 #@! TO.N,Net-(D5-Pad1)*
X33020000Y-48260000D03*
D14*
G04 #@! TO.N,Net-(D6-Pad1)*
G04 #@! TO.C,R6*
G36*
X33419504Y-49926204D02*
X33443773Y-49929804D01*
X33467571Y-49935765D01*
X33490671Y-49944030D01*
X33512849Y-49954520D01*
X33533893Y-49967133D01*
X33553598Y-49981747D01*
X33571777Y-49998223D01*
X33588253Y-50016402D01*
X33602867Y-50036107D01*
X33615480Y-50057151D01*
X33625970Y-50079329D01*
X33634235Y-50102429D01*
X33640196Y-50126227D01*
X33643796Y-50150496D01*
X33645000Y-50175000D01*
X33645000Y-51425000D01*
X33643796Y-51449504D01*
X33640196Y-51473773D01*
X33634235Y-51497571D01*
X33625970Y-51520671D01*
X33615480Y-51542849D01*
X33602867Y-51563893D01*
X33588253Y-51583598D01*
X33571777Y-51601777D01*
X33553598Y-51618253D01*
X33533893Y-51632867D01*
X33512849Y-51645480D01*
X33490671Y-51655970D01*
X33467571Y-51664235D01*
X33443773Y-51670196D01*
X33419504Y-51673796D01*
X33395000Y-51675000D01*
X32645000Y-51675000D01*
X32620496Y-51673796D01*
X32596227Y-51670196D01*
X32572429Y-51664235D01*
X32549329Y-51655970D01*
X32527151Y-51645480D01*
X32506107Y-51632867D01*
X32486402Y-51618253D01*
X32468223Y-51601777D01*
X32451747Y-51583598D01*
X32437133Y-51563893D01*
X32424520Y-51542849D01*
X32414030Y-51520671D01*
X32405765Y-51497571D01*
X32399804Y-51473773D01*
X32396204Y-51449504D01*
X32395000Y-51425000D01*
X32395000Y-50175000D01*
X32396204Y-50150496D01*
X32399804Y-50126227D01*
X32405765Y-50102429D01*
X32414030Y-50079329D01*
X32424520Y-50057151D01*
X32437133Y-50036107D01*
X32451747Y-50016402D01*
X32468223Y-49998223D01*
X32486402Y-49981747D01*
X32506107Y-49967133D01*
X32527151Y-49954520D01*
X32549329Y-49944030D01*
X32572429Y-49935765D01*
X32596227Y-49929804D01*
X32620496Y-49926204D01*
X32645000Y-49925000D01*
X33395000Y-49925000D01*
X33419504Y-49926204D01*
X33419504Y-49926204D01*
G37*
D15*
G04 #@! TD*
G04 #@! TO.P,R6,1*
G04 #@! TO.N,Net-(D6-Pad1)*
X33020000Y-50800000D03*
D14*
G04 #@! TO.N,GND*
G04 #@! TO.C,R6*
G36*
X36219504Y-49926204D02*
X36243773Y-49929804D01*
X36267571Y-49935765D01*
X36290671Y-49944030D01*
X36312849Y-49954520D01*
X36333893Y-49967133D01*
X36353598Y-49981747D01*
X36371777Y-49998223D01*
X36388253Y-50016402D01*
X36402867Y-50036107D01*
X36415480Y-50057151D01*
X36425970Y-50079329D01*
X36434235Y-50102429D01*
X36440196Y-50126227D01*
X36443796Y-50150496D01*
X36445000Y-50175000D01*
X36445000Y-51425000D01*
X36443796Y-51449504D01*
X36440196Y-51473773D01*
X36434235Y-51497571D01*
X36425970Y-51520671D01*
X36415480Y-51542849D01*
X36402867Y-51563893D01*
X36388253Y-51583598D01*
X36371777Y-51601777D01*
X36353598Y-51618253D01*
X36333893Y-51632867D01*
X36312849Y-51645480D01*
X36290671Y-51655970D01*
X36267571Y-51664235D01*
X36243773Y-51670196D01*
X36219504Y-51673796D01*
X36195000Y-51675000D01*
X35445000Y-51675000D01*
X35420496Y-51673796D01*
X35396227Y-51670196D01*
X35372429Y-51664235D01*
X35349329Y-51655970D01*
X35327151Y-51645480D01*
X35306107Y-51632867D01*
X35286402Y-51618253D01*
X35268223Y-51601777D01*
X35251747Y-51583598D01*
X35237133Y-51563893D01*
X35224520Y-51542849D01*
X35214030Y-51520671D01*
X35205765Y-51497571D01*
X35199804Y-51473773D01*
X35196204Y-51449504D01*
X35195000Y-51425000D01*
X35195000Y-50175000D01*
X35196204Y-50150496D01*
X35199804Y-50126227D01*
X35205765Y-50102429D01*
X35214030Y-50079329D01*
X35224520Y-50057151D01*
X35237133Y-50036107D01*
X35251747Y-50016402D01*
X35268223Y-49998223D01*
X35286402Y-49981747D01*
X35306107Y-49967133D01*
X35327151Y-49954520D01*
X35349329Y-49944030D01*
X35372429Y-49935765D01*
X35396227Y-49929804D01*
X35420496Y-49926204D01*
X35445000Y-49925000D01*
X36195000Y-49925000D01*
X36219504Y-49926204D01*
X36219504Y-49926204D01*
G37*
D15*
G04 #@! TD*
G04 #@! TO.P,R6,2*
G04 #@! TO.N,GND*
X35820000Y-50800000D03*
D14*
G04 #@! TO.N,GND*
G04 #@! TO.C,R7*
G36*
X36219504Y-52466204D02*
X36243773Y-52469804D01*
X36267571Y-52475765D01*
X36290671Y-52484030D01*
X36312849Y-52494520D01*
X36333893Y-52507133D01*
X36353598Y-52521747D01*
X36371777Y-52538223D01*
X36388253Y-52556402D01*
X36402867Y-52576107D01*
X36415480Y-52597151D01*
X36425970Y-52619329D01*
X36434235Y-52642429D01*
X36440196Y-52666227D01*
X36443796Y-52690496D01*
X36445000Y-52715000D01*
X36445000Y-53965000D01*
X36443796Y-53989504D01*
X36440196Y-54013773D01*
X36434235Y-54037571D01*
X36425970Y-54060671D01*
X36415480Y-54082849D01*
X36402867Y-54103893D01*
X36388253Y-54123598D01*
X36371777Y-54141777D01*
X36353598Y-54158253D01*
X36333893Y-54172867D01*
X36312849Y-54185480D01*
X36290671Y-54195970D01*
X36267571Y-54204235D01*
X36243773Y-54210196D01*
X36219504Y-54213796D01*
X36195000Y-54215000D01*
X35445000Y-54215000D01*
X35420496Y-54213796D01*
X35396227Y-54210196D01*
X35372429Y-54204235D01*
X35349329Y-54195970D01*
X35327151Y-54185480D01*
X35306107Y-54172867D01*
X35286402Y-54158253D01*
X35268223Y-54141777D01*
X35251747Y-54123598D01*
X35237133Y-54103893D01*
X35224520Y-54082849D01*
X35214030Y-54060671D01*
X35205765Y-54037571D01*
X35199804Y-54013773D01*
X35196204Y-53989504D01*
X35195000Y-53965000D01*
X35195000Y-52715000D01*
X35196204Y-52690496D01*
X35199804Y-52666227D01*
X35205765Y-52642429D01*
X35214030Y-52619329D01*
X35224520Y-52597151D01*
X35237133Y-52576107D01*
X35251747Y-52556402D01*
X35268223Y-52538223D01*
X35286402Y-52521747D01*
X35306107Y-52507133D01*
X35327151Y-52494520D01*
X35349329Y-52484030D01*
X35372429Y-52475765D01*
X35396227Y-52469804D01*
X35420496Y-52466204D01*
X35445000Y-52465000D01*
X36195000Y-52465000D01*
X36219504Y-52466204D01*
X36219504Y-52466204D01*
G37*
D15*
G04 #@! TD*
G04 #@! TO.P,R7,2*
G04 #@! TO.N,GND*
X35820000Y-53340000D03*
D14*
G04 #@! TO.N,Net-(D7-Pad1)*
G04 #@! TO.C,R7*
G36*
X33419504Y-52466204D02*
X33443773Y-52469804D01*
X33467571Y-52475765D01*
X33490671Y-52484030D01*
X33512849Y-52494520D01*
X33533893Y-52507133D01*
X33553598Y-52521747D01*
X33571777Y-52538223D01*
X33588253Y-52556402D01*
X33602867Y-52576107D01*
X33615480Y-52597151D01*
X33625970Y-52619329D01*
X33634235Y-52642429D01*
X33640196Y-52666227D01*
X33643796Y-52690496D01*
X33645000Y-52715000D01*
X33645000Y-53965000D01*
X33643796Y-53989504D01*
X33640196Y-54013773D01*
X33634235Y-54037571D01*
X33625970Y-54060671D01*
X33615480Y-54082849D01*
X33602867Y-54103893D01*
X33588253Y-54123598D01*
X33571777Y-54141777D01*
X33553598Y-54158253D01*
X33533893Y-54172867D01*
X33512849Y-54185480D01*
X33490671Y-54195970D01*
X33467571Y-54204235D01*
X33443773Y-54210196D01*
X33419504Y-54213796D01*
X33395000Y-54215000D01*
X32645000Y-54215000D01*
X32620496Y-54213796D01*
X32596227Y-54210196D01*
X32572429Y-54204235D01*
X32549329Y-54195970D01*
X32527151Y-54185480D01*
X32506107Y-54172867D01*
X32486402Y-54158253D01*
X32468223Y-54141777D01*
X32451747Y-54123598D01*
X32437133Y-54103893D01*
X32424520Y-54082849D01*
X32414030Y-54060671D01*
X32405765Y-54037571D01*
X32399804Y-54013773D01*
X32396204Y-53989504D01*
X32395000Y-53965000D01*
X32395000Y-52715000D01*
X32396204Y-52690496D01*
X32399804Y-52666227D01*
X32405765Y-52642429D01*
X32414030Y-52619329D01*
X32424520Y-52597151D01*
X32437133Y-52576107D01*
X32451747Y-52556402D01*
X32468223Y-52538223D01*
X32486402Y-52521747D01*
X32506107Y-52507133D01*
X32527151Y-52494520D01*
X32549329Y-52484030D01*
X32572429Y-52475765D01*
X32596227Y-52469804D01*
X32620496Y-52466204D01*
X32645000Y-52465000D01*
X33395000Y-52465000D01*
X33419504Y-52466204D01*
X33419504Y-52466204D01*
G37*
D15*
G04 #@! TD*
G04 #@! TO.P,R7,1*
G04 #@! TO.N,Net-(D7-Pad1)*
X33020000Y-53340000D03*
D14*
G04 #@! TO.N,Net-(D8-Pad1)*
G04 #@! TO.C,R8*
G36*
X33419504Y-55006204D02*
X33443773Y-55009804D01*
X33467571Y-55015765D01*
X33490671Y-55024030D01*
X33512849Y-55034520D01*
X33533893Y-55047133D01*
X33553598Y-55061747D01*
X33571777Y-55078223D01*
X33588253Y-55096402D01*
X33602867Y-55116107D01*
X33615480Y-55137151D01*
X33625970Y-55159329D01*
X33634235Y-55182429D01*
X33640196Y-55206227D01*
X33643796Y-55230496D01*
X33645000Y-55255000D01*
X33645000Y-56505000D01*
X33643796Y-56529504D01*
X33640196Y-56553773D01*
X33634235Y-56577571D01*
X33625970Y-56600671D01*
X33615480Y-56622849D01*
X33602867Y-56643893D01*
X33588253Y-56663598D01*
X33571777Y-56681777D01*
X33553598Y-56698253D01*
X33533893Y-56712867D01*
X33512849Y-56725480D01*
X33490671Y-56735970D01*
X33467571Y-56744235D01*
X33443773Y-56750196D01*
X33419504Y-56753796D01*
X33395000Y-56755000D01*
X32645000Y-56755000D01*
X32620496Y-56753796D01*
X32596227Y-56750196D01*
X32572429Y-56744235D01*
X32549329Y-56735970D01*
X32527151Y-56725480D01*
X32506107Y-56712867D01*
X32486402Y-56698253D01*
X32468223Y-56681777D01*
X32451747Y-56663598D01*
X32437133Y-56643893D01*
X32424520Y-56622849D01*
X32414030Y-56600671D01*
X32405765Y-56577571D01*
X32399804Y-56553773D01*
X32396204Y-56529504D01*
X32395000Y-56505000D01*
X32395000Y-55255000D01*
X32396204Y-55230496D01*
X32399804Y-55206227D01*
X32405765Y-55182429D01*
X32414030Y-55159329D01*
X32424520Y-55137151D01*
X32437133Y-55116107D01*
X32451747Y-55096402D01*
X32468223Y-55078223D01*
X32486402Y-55061747D01*
X32506107Y-55047133D01*
X32527151Y-55034520D01*
X32549329Y-55024030D01*
X32572429Y-55015765D01*
X32596227Y-55009804D01*
X32620496Y-55006204D01*
X32645000Y-55005000D01*
X33395000Y-55005000D01*
X33419504Y-55006204D01*
X33419504Y-55006204D01*
G37*
D15*
G04 #@! TD*
G04 #@! TO.P,R8,1*
G04 #@! TO.N,Net-(D8-Pad1)*
X33020000Y-55880000D03*
D14*
G04 #@! TO.N,GND*
G04 #@! TO.C,R8*
G36*
X36219504Y-55006204D02*
X36243773Y-55009804D01*
X36267571Y-55015765D01*
X36290671Y-55024030D01*
X36312849Y-55034520D01*
X36333893Y-55047133D01*
X36353598Y-55061747D01*
X36371777Y-55078223D01*
X36388253Y-55096402D01*
X36402867Y-55116107D01*
X36415480Y-55137151D01*
X36425970Y-55159329D01*
X36434235Y-55182429D01*
X36440196Y-55206227D01*
X36443796Y-55230496D01*
X36445000Y-55255000D01*
X36445000Y-56505000D01*
X36443796Y-56529504D01*
X36440196Y-56553773D01*
X36434235Y-56577571D01*
X36425970Y-56600671D01*
X36415480Y-56622849D01*
X36402867Y-56643893D01*
X36388253Y-56663598D01*
X36371777Y-56681777D01*
X36353598Y-56698253D01*
X36333893Y-56712867D01*
X36312849Y-56725480D01*
X36290671Y-56735970D01*
X36267571Y-56744235D01*
X36243773Y-56750196D01*
X36219504Y-56753796D01*
X36195000Y-56755000D01*
X35445000Y-56755000D01*
X35420496Y-56753796D01*
X35396227Y-56750196D01*
X35372429Y-56744235D01*
X35349329Y-56735970D01*
X35327151Y-56725480D01*
X35306107Y-56712867D01*
X35286402Y-56698253D01*
X35268223Y-56681777D01*
X35251747Y-56663598D01*
X35237133Y-56643893D01*
X35224520Y-56622849D01*
X35214030Y-56600671D01*
X35205765Y-56577571D01*
X35199804Y-56553773D01*
X35196204Y-56529504D01*
X35195000Y-56505000D01*
X35195000Y-55255000D01*
X35196204Y-55230496D01*
X35199804Y-55206227D01*
X35205765Y-55182429D01*
X35214030Y-55159329D01*
X35224520Y-55137151D01*
X35237133Y-55116107D01*
X35251747Y-55096402D01*
X35268223Y-55078223D01*
X35286402Y-55061747D01*
X35306107Y-55047133D01*
X35327151Y-55034520D01*
X35349329Y-55024030D01*
X35372429Y-55015765D01*
X35396227Y-55009804D01*
X35420496Y-55006204D01*
X35445000Y-55005000D01*
X36195000Y-55005000D01*
X36219504Y-55006204D01*
X36219504Y-55006204D01*
G37*
D15*
G04 #@! TD*
G04 #@! TO.P,R8,2*
G04 #@! TO.N,GND*
X35820000Y-55880000D03*
D14*
G04 #@! TO.N,GND*
G04 #@! TO.C,R9*
G36*
X36219504Y-57546204D02*
X36243773Y-57549804D01*
X36267571Y-57555765D01*
X36290671Y-57564030D01*
X36312849Y-57574520D01*
X36333893Y-57587133D01*
X36353598Y-57601747D01*
X36371777Y-57618223D01*
X36388253Y-57636402D01*
X36402867Y-57656107D01*
X36415480Y-57677151D01*
X36425970Y-57699329D01*
X36434235Y-57722429D01*
X36440196Y-57746227D01*
X36443796Y-57770496D01*
X36445000Y-57795000D01*
X36445000Y-59045000D01*
X36443796Y-59069504D01*
X36440196Y-59093773D01*
X36434235Y-59117571D01*
X36425970Y-59140671D01*
X36415480Y-59162849D01*
X36402867Y-59183893D01*
X36388253Y-59203598D01*
X36371777Y-59221777D01*
X36353598Y-59238253D01*
X36333893Y-59252867D01*
X36312849Y-59265480D01*
X36290671Y-59275970D01*
X36267571Y-59284235D01*
X36243773Y-59290196D01*
X36219504Y-59293796D01*
X36195000Y-59295000D01*
X35445000Y-59295000D01*
X35420496Y-59293796D01*
X35396227Y-59290196D01*
X35372429Y-59284235D01*
X35349329Y-59275970D01*
X35327151Y-59265480D01*
X35306107Y-59252867D01*
X35286402Y-59238253D01*
X35268223Y-59221777D01*
X35251747Y-59203598D01*
X35237133Y-59183893D01*
X35224520Y-59162849D01*
X35214030Y-59140671D01*
X35205765Y-59117571D01*
X35199804Y-59093773D01*
X35196204Y-59069504D01*
X35195000Y-59045000D01*
X35195000Y-57795000D01*
X35196204Y-57770496D01*
X35199804Y-57746227D01*
X35205765Y-57722429D01*
X35214030Y-57699329D01*
X35224520Y-57677151D01*
X35237133Y-57656107D01*
X35251747Y-57636402D01*
X35268223Y-57618223D01*
X35286402Y-57601747D01*
X35306107Y-57587133D01*
X35327151Y-57574520D01*
X35349329Y-57564030D01*
X35372429Y-57555765D01*
X35396227Y-57549804D01*
X35420496Y-57546204D01*
X35445000Y-57545000D01*
X36195000Y-57545000D01*
X36219504Y-57546204D01*
X36219504Y-57546204D01*
G37*
D15*
G04 #@! TD*
G04 #@! TO.P,R9,2*
G04 #@! TO.N,GND*
X35820000Y-58420000D03*
D14*
G04 #@! TO.N,Net-(D9-Pad1)*
G04 #@! TO.C,R9*
G36*
X33419504Y-57546204D02*
X33443773Y-57549804D01*
X33467571Y-57555765D01*
X33490671Y-57564030D01*
X33512849Y-57574520D01*
X33533893Y-57587133D01*
X33553598Y-57601747D01*
X33571777Y-57618223D01*
X33588253Y-57636402D01*
X33602867Y-57656107D01*
X33615480Y-57677151D01*
X33625970Y-57699329D01*
X33634235Y-57722429D01*
X33640196Y-57746227D01*
X33643796Y-57770496D01*
X33645000Y-57795000D01*
X33645000Y-59045000D01*
X33643796Y-59069504D01*
X33640196Y-59093773D01*
X33634235Y-59117571D01*
X33625970Y-59140671D01*
X33615480Y-59162849D01*
X33602867Y-59183893D01*
X33588253Y-59203598D01*
X33571777Y-59221777D01*
X33553598Y-59238253D01*
X33533893Y-59252867D01*
X33512849Y-59265480D01*
X33490671Y-59275970D01*
X33467571Y-59284235D01*
X33443773Y-59290196D01*
X33419504Y-59293796D01*
X33395000Y-59295000D01*
X32645000Y-59295000D01*
X32620496Y-59293796D01*
X32596227Y-59290196D01*
X32572429Y-59284235D01*
X32549329Y-59275970D01*
X32527151Y-59265480D01*
X32506107Y-59252867D01*
X32486402Y-59238253D01*
X32468223Y-59221777D01*
X32451747Y-59203598D01*
X32437133Y-59183893D01*
X32424520Y-59162849D01*
X32414030Y-59140671D01*
X32405765Y-59117571D01*
X32399804Y-59093773D01*
X32396204Y-59069504D01*
X32395000Y-59045000D01*
X32395000Y-57795000D01*
X32396204Y-57770496D01*
X32399804Y-57746227D01*
X32405765Y-57722429D01*
X32414030Y-57699329D01*
X32424520Y-57677151D01*
X32437133Y-57656107D01*
X32451747Y-57636402D01*
X32468223Y-57618223D01*
X32486402Y-57601747D01*
X32506107Y-57587133D01*
X32527151Y-57574520D01*
X32549329Y-57564030D01*
X32572429Y-57555765D01*
X32596227Y-57549804D01*
X32620496Y-57546204D01*
X32645000Y-57545000D01*
X33395000Y-57545000D01*
X33419504Y-57546204D01*
X33419504Y-57546204D01*
G37*
D15*
G04 #@! TD*
G04 #@! TO.P,R9,1*
G04 #@! TO.N,Net-(D9-Pad1)*
X33020000Y-58420000D03*
D14*
G04 #@! TO.N,Net-(D10-Pad1)*
G04 #@! TO.C,R10*
G36*
X33419504Y-60086204D02*
X33443773Y-60089804D01*
X33467571Y-60095765D01*
X33490671Y-60104030D01*
X33512849Y-60114520D01*
X33533893Y-60127133D01*
X33553598Y-60141747D01*
X33571777Y-60158223D01*
X33588253Y-60176402D01*
X33602867Y-60196107D01*
X33615480Y-60217151D01*
X33625970Y-60239329D01*
X33634235Y-60262429D01*
X33640196Y-60286227D01*
X33643796Y-60310496D01*
X33645000Y-60335000D01*
X33645000Y-61585000D01*
X33643796Y-61609504D01*
X33640196Y-61633773D01*
X33634235Y-61657571D01*
X33625970Y-61680671D01*
X33615480Y-61702849D01*
X33602867Y-61723893D01*
X33588253Y-61743598D01*
X33571777Y-61761777D01*
X33553598Y-61778253D01*
X33533893Y-61792867D01*
X33512849Y-61805480D01*
X33490671Y-61815970D01*
X33467571Y-61824235D01*
X33443773Y-61830196D01*
X33419504Y-61833796D01*
X33395000Y-61835000D01*
X32645000Y-61835000D01*
X32620496Y-61833796D01*
X32596227Y-61830196D01*
X32572429Y-61824235D01*
X32549329Y-61815970D01*
X32527151Y-61805480D01*
X32506107Y-61792867D01*
X32486402Y-61778253D01*
X32468223Y-61761777D01*
X32451747Y-61743598D01*
X32437133Y-61723893D01*
X32424520Y-61702849D01*
X32414030Y-61680671D01*
X32405765Y-61657571D01*
X32399804Y-61633773D01*
X32396204Y-61609504D01*
X32395000Y-61585000D01*
X32395000Y-60335000D01*
X32396204Y-60310496D01*
X32399804Y-60286227D01*
X32405765Y-60262429D01*
X32414030Y-60239329D01*
X32424520Y-60217151D01*
X32437133Y-60196107D01*
X32451747Y-60176402D01*
X32468223Y-60158223D01*
X32486402Y-60141747D01*
X32506107Y-60127133D01*
X32527151Y-60114520D01*
X32549329Y-60104030D01*
X32572429Y-60095765D01*
X32596227Y-60089804D01*
X32620496Y-60086204D01*
X32645000Y-60085000D01*
X33395000Y-60085000D01*
X33419504Y-60086204D01*
X33419504Y-60086204D01*
G37*
D15*
G04 #@! TD*
G04 #@! TO.P,R10,1*
G04 #@! TO.N,Net-(D10-Pad1)*
X33020000Y-60960000D03*
D14*
G04 #@! TO.N,GND*
G04 #@! TO.C,R10*
G36*
X36219504Y-60086204D02*
X36243773Y-60089804D01*
X36267571Y-60095765D01*
X36290671Y-60104030D01*
X36312849Y-60114520D01*
X36333893Y-60127133D01*
X36353598Y-60141747D01*
X36371777Y-60158223D01*
X36388253Y-60176402D01*
X36402867Y-60196107D01*
X36415480Y-60217151D01*
X36425970Y-60239329D01*
X36434235Y-60262429D01*
X36440196Y-60286227D01*
X36443796Y-60310496D01*
X36445000Y-60335000D01*
X36445000Y-61585000D01*
X36443796Y-61609504D01*
X36440196Y-61633773D01*
X36434235Y-61657571D01*
X36425970Y-61680671D01*
X36415480Y-61702849D01*
X36402867Y-61723893D01*
X36388253Y-61743598D01*
X36371777Y-61761777D01*
X36353598Y-61778253D01*
X36333893Y-61792867D01*
X36312849Y-61805480D01*
X36290671Y-61815970D01*
X36267571Y-61824235D01*
X36243773Y-61830196D01*
X36219504Y-61833796D01*
X36195000Y-61835000D01*
X35445000Y-61835000D01*
X35420496Y-61833796D01*
X35396227Y-61830196D01*
X35372429Y-61824235D01*
X35349329Y-61815970D01*
X35327151Y-61805480D01*
X35306107Y-61792867D01*
X35286402Y-61778253D01*
X35268223Y-61761777D01*
X35251747Y-61743598D01*
X35237133Y-61723893D01*
X35224520Y-61702849D01*
X35214030Y-61680671D01*
X35205765Y-61657571D01*
X35199804Y-61633773D01*
X35196204Y-61609504D01*
X35195000Y-61585000D01*
X35195000Y-60335000D01*
X35196204Y-60310496D01*
X35199804Y-60286227D01*
X35205765Y-60262429D01*
X35214030Y-60239329D01*
X35224520Y-60217151D01*
X35237133Y-60196107D01*
X35251747Y-60176402D01*
X35268223Y-60158223D01*
X35286402Y-60141747D01*
X35306107Y-60127133D01*
X35327151Y-60114520D01*
X35349329Y-60104030D01*
X35372429Y-60095765D01*
X35396227Y-60089804D01*
X35420496Y-60086204D01*
X35445000Y-60085000D01*
X36195000Y-60085000D01*
X36219504Y-60086204D01*
X36219504Y-60086204D01*
G37*
D15*
G04 #@! TD*
G04 #@! TO.P,R10,2*
G04 #@! TO.N,GND*
X35820000Y-60960000D03*
D14*
G04 #@! TO.N,Net-(D11-Pad1)*
G04 #@! TO.C,R11*
G36*
X33419504Y-62626204D02*
X33443773Y-62629804D01*
X33467571Y-62635765D01*
X33490671Y-62644030D01*
X33512849Y-62654520D01*
X33533893Y-62667133D01*
X33553598Y-62681747D01*
X33571777Y-62698223D01*
X33588253Y-62716402D01*
X33602867Y-62736107D01*
X33615480Y-62757151D01*
X33625970Y-62779329D01*
X33634235Y-62802429D01*
X33640196Y-62826227D01*
X33643796Y-62850496D01*
X33645000Y-62875000D01*
X33645000Y-64125000D01*
X33643796Y-64149504D01*
X33640196Y-64173773D01*
X33634235Y-64197571D01*
X33625970Y-64220671D01*
X33615480Y-64242849D01*
X33602867Y-64263893D01*
X33588253Y-64283598D01*
X33571777Y-64301777D01*
X33553598Y-64318253D01*
X33533893Y-64332867D01*
X33512849Y-64345480D01*
X33490671Y-64355970D01*
X33467571Y-64364235D01*
X33443773Y-64370196D01*
X33419504Y-64373796D01*
X33395000Y-64375000D01*
X32645000Y-64375000D01*
X32620496Y-64373796D01*
X32596227Y-64370196D01*
X32572429Y-64364235D01*
X32549329Y-64355970D01*
X32527151Y-64345480D01*
X32506107Y-64332867D01*
X32486402Y-64318253D01*
X32468223Y-64301777D01*
X32451747Y-64283598D01*
X32437133Y-64263893D01*
X32424520Y-64242849D01*
X32414030Y-64220671D01*
X32405765Y-64197571D01*
X32399804Y-64173773D01*
X32396204Y-64149504D01*
X32395000Y-64125000D01*
X32395000Y-62875000D01*
X32396204Y-62850496D01*
X32399804Y-62826227D01*
X32405765Y-62802429D01*
X32414030Y-62779329D01*
X32424520Y-62757151D01*
X32437133Y-62736107D01*
X32451747Y-62716402D01*
X32468223Y-62698223D01*
X32486402Y-62681747D01*
X32506107Y-62667133D01*
X32527151Y-62654520D01*
X32549329Y-62644030D01*
X32572429Y-62635765D01*
X32596227Y-62629804D01*
X32620496Y-62626204D01*
X32645000Y-62625000D01*
X33395000Y-62625000D01*
X33419504Y-62626204D01*
X33419504Y-62626204D01*
G37*
D15*
G04 #@! TD*
G04 #@! TO.P,R11,1*
G04 #@! TO.N,Net-(D11-Pad1)*
X33020000Y-63500000D03*
D14*
G04 #@! TO.N,GND*
G04 #@! TO.C,R11*
G36*
X36219504Y-62626204D02*
X36243773Y-62629804D01*
X36267571Y-62635765D01*
X36290671Y-62644030D01*
X36312849Y-62654520D01*
X36333893Y-62667133D01*
X36353598Y-62681747D01*
X36371777Y-62698223D01*
X36388253Y-62716402D01*
X36402867Y-62736107D01*
X36415480Y-62757151D01*
X36425970Y-62779329D01*
X36434235Y-62802429D01*
X36440196Y-62826227D01*
X36443796Y-62850496D01*
X36445000Y-62875000D01*
X36445000Y-64125000D01*
X36443796Y-64149504D01*
X36440196Y-64173773D01*
X36434235Y-64197571D01*
X36425970Y-64220671D01*
X36415480Y-64242849D01*
X36402867Y-64263893D01*
X36388253Y-64283598D01*
X36371777Y-64301777D01*
X36353598Y-64318253D01*
X36333893Y-64332867D01*
X36312849Y-64345480D01*
X36290671Y-64355970D01*
X36267571Y-64364235D01*
X36243773Y-64370196D01*
X36219504Y-64373796D01*
X36195000Y-64375000D01*
X35445000Y-64375000D01*
X35420496Y-64373796D01*
X35396227Y-64370196D01*
X35372429Y-64364235D01*
X35349329Y-64355970D01*
X35327151Y-64345480D01*
X35306107Y-64332867D01*
X35286402Y-64318253D01*
X35268223Y-64301777D01*
X35251747Y-64283598D01*
X35237133Y-64263893D01*
X35224520Y-64242849D01*
X35214030Y-64220671D01*
X35205765Y-64197571D01*
X35199804Y-64173773D01*
X35196204Y-64149504D01*
X35195000Y-64125000D01*
X35195000Y-62875000D01*
X35196204Y-62850496D01*
X35199804Y-62826227D01*
X35205765Y-62802429D01*
X35214030Y-62779329D01*
X35224520Y-62757151D01*
X35237133Y-62736107D01*
X35251747Y-62716402D01*
X35268223Y-62698223D01*
X35286402Y-62681747D01*
X35306107Y-62667133D01*
X35327151Y-62654520D01*
X35349329Y-62644030D01*
X35372429Y-62635765D01*
X35396227Y-62629804D01*
X35420496Y-62626204D01*
X35445000Y-62625000D01*
X36195000Y-62625000D01*
X36219504Y-62626204D01*
X36219504Y-62626204D01*
G37*
D15*
G04 #@! TD*
G04 #@! TO.P,R11,2*
G04 #@! TO.N,GND*
X35820000Y-63500000D03*
D16*
G04 #@! TO.N,Net-(D1-Pad1)*
X30395000Y-38100000D02*
X33020000Y-38100000D01*
G04 #@! TO.N,Net-(D1-Pad2)*
X25400000Y-38100000D02*
X28575000Y-38100000D01*
G04 #@! TO.N,Net-(D2-Pad2)*
X28575000Y-40640000D02*
X25400000Y-40640000D01*
G04 #@! TO.N,Net-(D2-Pad1)*
X30395000Y-40640000D02*
X33020000Y-40640000D01*
G04 #@! TO.N,Net-(D3-Pad1)*
X30395000Y-43180000D02*
X33020000Y-43180000D01*
G04 #@! TO.N,Net-(D3-Pad2)*
X28575000Y-43180000D02*
X25400000Y-43180000D01*
G04 #@! TO.N,Net-(D4-Pad2)*
X28575000Y-45720000D02*
X25400000Y-45720000D01*
G04 #@! TO.N,Net-(D4-Pad1)*
X30395000Y-45720000D02*
X33020000Y-45720000D01*
G04 #@! TO.N,Net-(D5-Pad1)*
X30395000Y-48260000D02*
X33020000Y-48260000D01*
G04 #@! TO.N,Net-(D5-Pad2)*
X28575000Y-48260000D02*
X25400000Y-48260000D01*
G04 #@! TO.N,Net-(D6-Pad2)*
X28575000Y-50800000D02*
X25400000Y-50800000D01*
G04 #@! TO.N,Net-(D6-Pad1)*
X33020000Y-50800000D02*
X30395000Y-50800000D01*
G04 #@! TO.N,Net-(D7-Pad1)*
X30395000Y-53340000D02*
X33020000Y-53340000D01*
G04 #@! TO.N,Net-(D7-Pad2)*
X28575000Y-53340000D02*
X25400000Y-53340000D01*
G04 #@! TO.N,Net-(D8-Pad2)*
X28575000Y-55880000D02*
X25400000Y-55880000D01*
G04 #@! TO.N,Net-(D8-Pad1)*
X30395000Y-55880000D02*
X33020000Y-55880000D01*
G04 #@! TO.N,Net-(D9-Pad1)*
X30395000Y-58420000D02*
X33020000Y-58420000D01*
G04 #@! TO.N,Net-(D9-Pad2)*
X28575000Y-58420000D02*
X25400000Y-58420000D01*
G04 #@! TO.N,Net-(D10-Pad2)*
X28575000Y-60960000D02*
X25400000Y-60960000D01*
G04 #@! TO.N,Net-(D10-Pad1)*
X30395000Y-60960000D02*
X33020000Y-60960000D01*
G04 #@! TO.N,Net-(D11-Pad1)*
X30395000Y-63500000D02*
X33020000Y-63500000D01*
G04 #@! TO.N,Net-(D11-Pad2)*
X28575000Y-63500000D02*
X25400000Y-63500000D01*
D17*
G04 #@! TO.N,GND*
X33280000Y-35560000D02*
X35820000Y-38100000D01*
X25400000Y-35560000D02*
X33280000Y-35560000D01*
X35820000Y-38100000D02*
X35820000Y-40640000D01*
X35820000Y-40640000D02*
X35820000Y-43180000D01*
X35820000Y-43180000D02*
X35820000Y-45720000D01*
X35820000Y-45720000D02*
X35820000Y-48260000D01*
X35820000Y-48260000D02*
X35820000Y-50800000D01*
X35820000Y-50800000D02*
X35820000Y-53340000D01*
X35820000Y-53340000D02*
X35820000Y-55880000D01*
X35820000Y-55880000D02*
X35820000Y-58420000D01*
X35820000Y-58420000D02*
X35820000Y-60960000D01*
X35820000Y-60960000D02*
X35820000Y-63500000D01*
G04 #@! TD*
M02*
