G04 #@! TF.GenerationSoftware,KiCad,Pcbnew,(5.0.0)*
G04 #@! TF.CreationDate,2018-10-07T14:33:42+02:00*
G04 #@! TF.ProjectId,LED-panel,4C45442D70616E656C2E6B696361645F,rev?*
G04 #@! TF.SameCoordinates,Original*
G04 #@! TF.FileFunction,Soldermask,Top*
G04 #@! TF.FilePolarity,Negative*
%FSLAX46Y46*%
G04 Gerber Fmt 4.6, Leading zero omitted, Abs format (unit mm)*
G04 Created by KiCad (PCBNEW (5.0.0)) date 10/07/18 14:33:42*
%MOMM*%
%LPD*%
G01*
G04 APERTURE LIST*
%ADD10R,1.280000X1.200000*%
%ADD11R,1.900000X1.200000*%
%ADD12R,2.100000X2.100000*%
%ADD13O,2.100000X2.100000*%
%ADD14C,0.100000*%
%ADD15C,1.650000*%
G04 APERTURE END LIST*
D10*
G04 #@! TO.C,D1*
X28575000Y-38100000D03*
D11*
X30395000Y-38100000D03*
G04 #@! TD*
G04 #@! TO.C,D2*
X30395000Y-40640000D03*
D10*
X28575000Y-40640000D03*
G04 #@! TD*
G04 #@! TO.C,D3*
X28575000Y-43180000D03*
D11*
X30395000Y-43180000D03*
G04 #@! TD*
G04 #@! TO.C,D4*
X30395000Y-45720000D03*
D10*
X28575000Y-45720000D03*
G04 #@! TD*
G04 #@! TO.C,D5*
X28575000Y-48260000D03*
D11*
X30395000Y-48260000D03*
G04 #@! TD*
G04 #@! TO.C,D6*
X30395000Y-50800000D03*
D10*
X28575000Y-50800000D03*
G04 #@! TD*
G04 #@! TO.C,D7*
X28575000Y-53340000D03*
D11*
X30395000Y-53340000D03*
G04 #@! TD*
G04 #@! TO.C,D8*
X30395000Y-55880000D03*
D10*
X28575000Y-55880000D03*
G04 #@! TD*
G04 #@! TO.C,D9*
X28575000Y-58420000D03*
D11*
X30395000Y-58420000D03*
G04 #@! TD*
G04 #@! TO.C,D10*
X30395000Y-60960000D03*
D10*
X28575000Y-60960000D03*
G04 #@! TD*
G04 #@! TO.C,D11*
X28575000Y-63500000D03*
D11*
X30395000Y-63500000D03*
G04 #@! TD*
D12*
G04 #@! TO.C,J1*
X25400000Y-35560000D03*
D13*
X25400000Y-38100000D03*
X25400000Y-40640000D03*
X25400000Y-43180000D03*
X25400000Y-45720000D03*
X25400000Y-48260000D03*
X25400000Y-50800000D03*
X25400000Y-53340000D03*
X25400000Y-55880000D03*
X25400000Y-58420000D03*
X25400000Y-60960000D03*
X25400000Y-63500000D03*
G04 #@! TD*
D14*
G04 #@! TO.C,R1*
G36*
X36347346Y-37026589D02*
X36379380Y-37031341D01*
X36410794Y-37039210D01*
X36441286Y-37050120D01*
X36470561Y-37063966D01*
X36498338Y-37080615D01*
X36524350Y-37099907D01*
X36548345Y-37121655D01*
X36570093Y-37145650D01*
X36589385Y-37171662D01*
X36606034Y-37199439D01*
X36619880Y-37228714D01*
X36630790Y-37259206D01*
X36638659Y-37290620D01*
X36643411Y-37322654D01*
X36645000Y-37355000D01*
X36645000Y-38845000D01*
X36643411Y-38877346D01*
X36638659Y-38909380D01*
X36630790Y-38940794D01*
X36619880Y-38971286D01*
X36606034Y-39000561D01*
X36589385Y-39028338D01*
X36570093Y-39054350D01*
X36548345Y-39078345D01*
X36524350Y-39100093D01*
X36498338Y-39119385D01*
X36470561Y-39136034D01*
X36441286Y-39149880D01*
X36410794Y-39160790D01*
X36379380Y-39168659D01*
X36347346Y-39173411D01*
X36315000Y-39175000D01*
X35325000Y-39175000D01*
X35292654Y-39173411D01*
X35260620Y-39168659D01*
X35229206Y-39160790D01*
X35198714Y-39149880D01*
X35169439Y-39136034D01*
X35141662Y-39119385D01*
X35115650Y-39100093D01*
X35091655Y-39078345D01*
X35069907Y-39054350D01*
X35050615Y-39028338D01*
X35033966Y-39000561D01*
X35020120Y-38971286D01*
X35009210Y-38940794D01*
X35001341Y-38909380D01*
X34996589Y-38877346D01*
X34995000Y-38845000D01*
X34995000Y-37355000D01*
X34996589Y-37322654D01*
X35001341Y-37290620D01*
X35009210Y-37259206D01*
X35020120Y-37228714D01*
X35033966Y-37199439D01*
X35050615Y-37171662D01*
X35069907Y-37145650D01*
X35091655Y-37121655D01*
X35115650Y-37099907D01*
X35141662Y-37080615D01*
X35169439Y-37063966D01*
X35198714Y-37050120D01*
X35229206Y-37039210D01*
X35260620Y-37031341D01*
X35292654Y-37026589D01*
X35325000Y-37025000D01*
X36315000Y-37025000D01*
X36347346Y-37026589D01*
X36347346Y-37026589D01*
G37*
D15*
X35820000Y-38100000D03*
D14*
G36*
X33547346Y-37026589D02*
X33579380Y-37031341D01*
X33610794Y-37039210D01*
X33641286Y-37050120D01*
X33670561Y-37063966D01*
X33698338Y-37080615D01*
X33724350Y-37099907D01*
X33748345Y-37121655D01*
X33770093Y-37145650D01*
X33789385Y-37171662D01*
X33806034Y-37199439D01*
X33819880Y-37228714D01*
X33830790Y-37259206D01*
X33838659Y-37290620D01*
X33843411Y-37322654D01*
X33845000Y-37355000D01*
X33845000Y-38845000D01*
X33843411Y-38877346D01*
X33838659Y-38909380D01*
X33830790Y-38940794D01*
X33819880Y-38971286D01*
X33806034Y-39000561D01*
X33789385Y-39028338D01*
X33770093Y-39054350D01*
X33748345Y-39078345D01*
X33724350Y-39100093D01*
X33698338Y-39119385D01*
X33670561Y-39136034D01*
X33641286Y-39149880D01*
X33610794Y-39160790D01*
X33579380Y-39168659D01*
X33547346Y-39173411D01*
X33515000Y-39175000D01*
X32525000Y-39175000D01*
X32492654Y-39173411D01*
X32460620Y-39168659D01*
X32429206Y-39160790D01*
X32398714Y-39149880D01*
X32369439Y-39136034D01*
X32341662Y-39119385D01*
X32315650Y-39100093D01*
X32291655Y-39078345D01*
X32269907Y-39054350D01*
X32250615Y-39028338D01*
X32233966Y-39000561D01*
X32220120Y-38971286D01*
X32209210Y-38940794D01*
X32201341Y-38909380D01*
X32196589Y-38877346D01*
X32195000Y-38845000D01*
X32195000Y-37355000D01*
X32196589Y-37322654D01*
X32201341Y-37290620D01*
X32209210Y-37259206D01*
X32220120Y-37228714D01*
X32233966Y-37199439D01*
X32250615Y-37171662D01*
X32269907Y-37145650D01*
X32291655Y-37121655D01*
X32315650Y-37099907D01*
X32341662Y-37080615D01*
X32369439Y-37063966D01*
X32398714Y-37050120D01*
X32429206Y-37039210D01*
X32460620Y-37031341D01*
X32492654Y-37026589D01*
X32525000Y-37025000D01*
X33515000Y-37025000D01*
X33547346Y-37026589D01*
X33547346Y-37026589D01*
G37*
D15*
X33020000Y-38100000D03*
G04 #@! TD*
D14*
G04 #@! TO.C,R2*
G36*
X33547346Y-39566589D02*
X33579380Y-39571341D01*
X33610794Y-39579210D01*
X33641286Y-39590120D01*
X33670561Y-39603966D01*
X33698338Y-39620615D01*
X33724350Y-39639907D01*
X33748345Y-39661655D01*
X33770093Y-39685650D01*
X33789385Y-39711662D01*
X33806034Y-39739439D01*
X33819880Y-39768714D01*
X33830790Y-39799206D01*
X33838659Y-39830620D01*
X33843411Y-39862654D01*
X33845000Y-39895000D01*
X33845000Y-41385000D01*
X33843411Y-41417346D01*
X33838659Y-41449380D01*
X33830790Y-41480794D01*
X33819880Y-41511286D01*
X33806034Y-41540561D01*
X33789385Y-41568338D01*
X33770093Y-41594350D01*
X33748345Y-41618345D01*
X33724350Y-41640093D01*
X33698338Y-41659385D01*
X33670561Y-41676034D01*
X33641286Y-41689880D01*
X33610794Y-41700790D01*
X33579380Y-41708659D01*
X33547346Y-41713411D01*
X33515000Y-41715000D01*
X32525000Y-41715000D01*
X32492654Y-41713411D01*
X32460620Y-41708659D01*
X32429206Y-41700790D01*
X32398714Y-41689880D01*
X32369439Y-41676034D01*
X32341662Y-41659385D01*
X32315650Y-41640093D01*
X32291655Y-41618345D01*
X32269907Y-41594350D01*
X32250615Y-41568338D01*
X32233966Y-41540561D01*
X32220120Y-41511286D01*
X32209210Y-41480794D01*
X32201341Y-41449380D01*
X32196589Y-41417346D01*
X32195000Y-41385000D01*
X32195000Y-39895000D01*
X32196589Y-39862654D01*
X32201341Y-39830620D01*
X32209210Y-39799206D01*
X32220120Y-39768714D01*
X32233966Y-39739439D01*
X32250615Y-39711662D01*
X32269907Y-39685650D01*
X32291655Y-39661655D01*
X32315650Y-39639907D01*
X32341662Y-39620615D01*
X32369439Y-39603966D01*
X32398714Y-39590120D01*
X32429206Y-39579210D01*
X32460620Y-39571341D01*
X32492654Y-39566589D01*
X32525000Y-39565000D01*
X33515000Y-39565000D01*
X33547346Y-39566589D01*
X33547346Y-39566589D01*
G37*
D15*
X33020000Y-40640000D03*
D14*
G36*
X36347346Y-39566589D02*
X36379380Y-39571341D01*
X36410794Y-39579210D01*
X36441286Y-39590120D01*
X36470561Y-39603966D01*
X36498338Y-39620615D01*
X36524350Y-39639907D01*
X36548345Y-39661655D01*
X36570093Y-39685650D01*
X36589385Y-39711662D01*
X36606034Y-39739439D01*
X36619880Y-39768714D01*
X36630790Y-39799206D01*
X36638659Y-39830620D01*
X36643411Y-39862654D01*
X36645000Y-39895000D01*
X36645000Y-41385000D01*
X36643411Y-41417346D01*
X36638659Y-41449380D01*
X36630790Y-41480794D01*
X36619880Y-41511286D01*
X36606034Y-41540561D01*
X36589385Y-41568338D01*
X36570093Y-41594350D01*
X36548345Y-41618345D01*
X36524350Y-41640093D01*
X36498338Y-41659385D01*
X36470561Y-41676034D01*
X36441286Y-41689880D01*
X36410794Y-41700790D01*
X36379380Y-41708659D01*
X36347346Y-41713411D01*
X36315000Y-41715000D01*
X35325000Y-41715000D01*
X35292654Y-41713411D01*
X35260620Y-41708659D01*
X35229206Y-41700790D01*
X35198714Y-41689880D01*
X35169439Y-41676034D01*
X35141662Y-41659385D01*
X35115650Y-41640093D01*
X35091655Y-41618345D01*
X35069907Y-41594350D01*
X35050615Y-41568338D01*
X35033966Y-41540561D01*
X35020120Y-41511286D01*
X35009210Y-41480794D01*
X35001341Y-41449380D01*
X34996589Y-41417346D01*
X34995000Y-41385000D01*
X34995000Y-39895000D01*
X34996589Y-39862654D01*
X35001341Y-39830620D01*
X35009210Y-39799206D01*
X35020120Y-39768714D01*
X35033966Y-39739439D01*
X35050615Y-39711662D01*
X35069907Y-39685650D01*
X35091655Y-39661655D01*
X35115650Y-39639907D01*
X35141662Y-39620615D01*
X35169439Y-39603966D01*
X35198714Y-39590120D01*
X35229206Y-39579210D01*
X35260620Y-39571341D01*
X35292654Y-39566589D01*
X35325000Y-39565000D01*
X36315000Y-39565000D01*
X36347346Y-39566589D01*
X36347346Y-39566589D01*
G37*
D15*
X35820000Y-40640000D03*
G04 #@! TD*
D14*
G04 #@! TO.C,R3*
G36*
X36347346Y-42106589D02*
X36379380Y-42111341D01*
X36410794Y-42119210D01*
X36441286Y-42130120D01*
X36470561Y-42143966D01*
X36498338Y-42160615D01*
X36524350Y-42179907D01*
X36548345Y-42201655D01*
X36570093Y-42225650D01*
X36589385Y-42251662D01*
X36606034Y-42279439D01*
X36619880Y-42308714D01*
X36630790Y-42339206D01*
X36638659Y-42370620D01*
X36643411Y-42402654D01*
X36645000Y-42435000D01*
X36645000Y-43925000D01*
X36643411Y-43957346D01*
X36638659Y-43989380D01*
X36630790Y-44020794D01*
X36619880Y-44051286D01*
X36606034Y-44080561D01*
X36589385Y-44108338D01*
X36570093Y-44134350D01*
X36548345Y-44158345D01*
X36524350Y-44180093D01*
X36498338Y-44199385D01*
X36470561Y-44216034D01*
X36441286Y-44229880D01*
X36410794Y-44240790D01*
X36379380Y-44248659D01*
X36347346Y-44253411D01*
X36315000Y-44255000D01*
X35325000Y-44255000D01*
X35292654Y-44253411D01*
X35260620Y-44248659D01*
X35229206Y-44240790D01*
X35198714Y-44229880D01*
X35169439Y-44216034D01*
X35141662Y-44199385D01*
X35115650Y-44180093D01*
X35091655Y-44158345D01*
X35069907Y-44134350D01*
X35050615Y-44108338D01*
X35033966Y-44080561D01*
X35020120Y-44051286D01*
X35009210Y-44020794D01*
X35001341Y-43989380D01*
X34996589Y-43957346D01*
X34995000Y-43925000D01*
X34995000Y-42435000D01*
X34996589Y-42402654D01*
X35001341Y-42370620D01*
X35009210Y-42339206D01*
X35020120Y-42308714D01*
X35033966Y-42279439D01*
X35050615Y-42251662D01*
X35069907Y-42225650D01*
X35091655Y-42201655D01*
X35115650Y-42179907D01*
X35141662Y-42160615D01*
X35169439Y-42143966D01*
X35198714Y-42130120D01*
X35229206Y-42119210D01*
X35260620Y-42111341D01*
X35292654Y-42106589D01*
X35325000Y-42105000D01*
X36315000Y-42105000D01*
X36347346Y-42106589D01*
X36347346Y-42106589D01*
G37*
D15*
X35820000Y-43180000D03*
D14*
G36*
X33547346Y-42106589D02*
X33579380Y-42111341D01*
X33610794Y-42119210D01*
X33641286Y-42130120D01*
X33670561Y-42143966D01*
X33698338Y-42160615D01*
X33724350Y-42179907D01*
X33748345Y-42201655D01*
X33770093Y-42225650D01*
X33789385Y-42251662D01*
X33806034Y-42279439D01*
X33819880Y-42308714D01*
X33830790Y-42339206D01*
X33838659Y-42370620D01*
X33843411Y-42402654D01*
X33845000Y-42435000D01*
X33845000Y-43925000D01*
X33843411Y-43957346D01*
X33838659Y-43989380D01*
X33830790Y-44020794D01*
X33819880Y-44051286D01*
X33806034Y-44080561D01*
X33789385Y-44108338D01*
X33770093Y-44134350D01*
X33748345Y-44158345D01*
X33724350Y-44180093D01*
X33698338Y-44199385D01*
X33670561Y-44216034D01*
X33641286Y-44229880D01*
X33610794Y-44240790D01*
X33579380Y-44248659D01*
X33547346Y-44253411D01*
X33515000Y-44255000D01*
X32525000Y-44255000D01*
X32492654Y-44253411D01*
X32460620Y-44248659D01*
X32429206Y-44240790D01*
X32398714Y-44229880D01*
X32369439Y-44216034D01*
X32341662Y-44199385D01*
X32315650Y-44180093D01*
X32291655Y-44158345D01*
X32269907Y-44134350D01*
X32250615Y-44108338D01*
X32233966Y-44080561D01*
X32220120Y-44051286D01*
X32209210Y-44020794D01*
X32201341Y-43989380D01*
X32196589Y-43957346D01*
X32195000Y-43925000D01*
X32195000Y-42435000D01*
X32196589Y-42402654D01*
X32201341Y-42370620D01*
X32209210Y-42339206D01*
X32220120Y-42308714D01*
X32233966Y-42279439D01*
X32250615Y-42251662D01*
X32269907Y-42225650D01*
X32291655Y-42201655D01*
X32315650Y-42179907D01*
X32341662Y-42160615D01*
X32369439Y-42143966D01*
X32398714Y-42130120D01*
X32429206Y-42119210D01*
X32460620Y-42111341D01*
X32492654Y-42106589D01*
X32525000Y-42105000D01*
X33515000Y-42105000D01*
X33547346Y-42106589D01*
X33547346Y-42106589D01*
G37*
D15*
X33020000Y-43180000D03*
G04 #@! TD*
D14*
G04 #@! TO.C,R4*
G36*
X33547346Y-44646589D02*
X33579380Y-44651341D01*
X33610794Y-44659210D01*
X33641286Y-44670120D01*
X33670561Y-44683966D01*
X33698338Y-44700615D01*
X33724350Y-44719907D01*
X33748345Y-44741655D01*
X33770093Y-44765650D01*
X33789385Y-44791662D01*
X33806034Y-44819439D01*
X33819880Y-44848714D01*
X33830790Y-44879206D01*
X33838659Y-44910620D01*
X33843411Y-44942654D01*
X33845000Y-44975000D01*
X33845000Y-46465000D01*
X33843411Y-46497346D01*
X33838659Y-46529380D01*
X33830790Y-46560794D01*
X33819880Y-46591286D01*
X33806034Y-46620561D01*
X33789385Y-46648338D01*
X33770093Y-46674350D01*
X33748345Y-46698345D01*
X33724350Y-46720093D01*
X33698338Y-46739385D01*
X33670561Y-46756034D01*
X33641286Y-46769880D01*
X33610794Y-46780790D01*
X33579380Y-46788659D01*
X33547346Y-46793411D01*
X33515000Y-46795000D01*
X32525000Y-46795000D01*
X32492654Y-46793411D01*
X32460620Y-46788659D01*
X32429206Y-46780790D01*
X32398714Y-46769880D01*
X32369439Y-46756034D01*
X32341662Y-46739385D01*
X32315650Y-46720093D01*
X32291655Y-46698345D01*
X32269907Y-46674350D01*
X32250615Y-46648338D01*
X32233966Y-46620561D01*
X32220120Y-46591286D01*
X32209210Y-46560794D01*
X32201341Y-46529380D01*
X32196589Y-46497346D01*
X32195000Y-46465000D01*
X32195000Y-44975000D01*
X32196589Y-44942654D01*
X32201341Y-44910620D01*
X32209210Y-44879206D01*
X32220120Y-44848714D01*
X32233966Y-44819439D01*
X32250615Y-44791662D01*
X32269907Y-44765650D01*
X32291655Y-44741655D01*
X32315650Y-44719907D01*
X32341662Y-44700615D01*
X32369439Y-44683966D01*
X32398714Y-44670120D01*
X32429206Y-44659210D01*
X32460620Y-44651341D01*
X32492654Y-44646589D01*
X32525000Y-44645000D01*
X33515000Y-44645000D01*
X33547346Y-44646589D01*
X33547346Y-44646589D01*
G37*
D15*
X33020000Y-45720000D03*
D14*
G36*
X36347346Y-44646589D02*
X36379380Y-44651341D01*
X36410794Y-44659210D01*
X36441286Y-44670120D01*
X36470561Y-44683966D01*
X36498338Y-44700615D01*
X36524350Y-44719907D01*
X36548345Y-44741655D01*
X36570093Y-44765650D01*
X36589385Y-44791662D01*
X36606034Y-44819439D01*
X36619880Y-44848714D01*
X36630790Y-44879206D01*
X36638659Y-44910620D01*
X36643411Y-44942654D01*
X36645000Y-44975000D01*
X36645000Y-46465000D01*
X36643411Y-46497346D01*
X36638659Y-46529380D01*
X36630790Y-46560794D01*
X36619880Y-46591286D01*
X36606034Y-46620561D01*
X36589385Y-46648338D01*
X36570093Y-46674350D01*
X36548345Y-46698345D01*
X36524350Y-46720093D01*
X36498338Y-46739385D01*
X36470561Y-46756034D01*
X36441286Y-46769880D01*
X36410794Y-46780790D01*
X36379380Y-46788659D01*
X36347346Y-46793411D01*
X36315000Y-46795000D01*
X35325000Y-46795000D01*
X35292654Y-46793411D01*
X35260620Y-46788659D01*
X35229206Y-46780790D01*
X35198714Y-46769880D01*
X35169439Y-46756034D01*
X35141662Y-46739385D01*
X35115650Y-46720093D01*
X35091655Y-46698345D01*
X35069907Y-46674350D01*
X35050615Y-46648338D01*
X35033966Y-46620561D01*
X35020120Y-46591286D01*
X35009210Y-46560794D01*
X35001341Y-46529380D01*
X34996589Y-46497346D01*
X34995000Y-46465000D01*
X34995000Y-44975000D01*
X34996589Y-44942654D01*
X35001341Y-44910620D01*
X35009210Y-44879206D01*
X35020120Y-44848714D01*
X35033966Y-44819439D01*
X35050615Y-44791662D01*
X35069907Y-44765650D01*
X35091655Y-44741655D01*
X35115650Y-44719907D01*
X35141662Y-44700615D01*
X35169439Y-44683966D01*
X35198714Y-44670120D01*
X35229206Y-44659210D01*
X35260620Y-44651341D01*
X35292654Y-44646589D01*
X35325000Y-44645000D01*
X36315000Y-44645000D01*
X36347346Y-44646589D01*
X36347346Y-44646589D01*
G37*
D15*
X35820000Y-45720000D03*
G04 #@! TD*
D14*
G04 #@! TO.C,R5*
G36*
X36347346Y-47186589D02*
X36379380Y-47191341D01*
X36410794Y-47199210D01*
X36441286Y-47210120D01*
X36470561Y-47223966D01*
X36498338Y-47240615D01*
X36524350Y-47259907D01*
X36548345Y-47281655D01*
X36570093Y-47305650D01*
X36589385Y-47331662D01*
X36606034Y-47359439D01*
X36619880Y-47388714D01*
X36630790Y-47419206D01*
X36638659Y-47450620D01*
X36643411Y-47482654D01*
X36645000Y-47515000D01*
X36645000Y-49005000D01*
X36643411Y-49037346D01*
X36638659Y-49069380D01*
X36630790Y-49100794D01*
X36619880Y-49131286D01*
X36606034Y-49160561D01*
X36589385Y-49188338D01*
X36570093Y-49214350D01*
X36548345Y-49238345D01*
X36524350Y-49260093D01*
X36498338Y-49279385D01*
X36470561Y-49296034D01*
X36441286Y-49309880D01*
X36410794Y-49320790D01*
X36379380Y-49328659D01*
X36347346Y-49333411D01*
X36315000Y-49335000D01*
X35325000Y-49335000D01*
X35292654Y-49333411D01*
X35260620Y-49328659D01*
X35229206Y-49320790D01*
X35198714Y-49309880D01*
X35169439Y-49296034D01*
X35141662Y-49279385D01*
X35115650Y-49260093D01*
X35091655Y-49238345D01*
X35069907Y-49214350D01*
X35050615Y-49188338D01*
X35033966Y-49160561D01*
X35020120Y-49131286D01*
X35009210Y-49100794D01*
X35001341Y-49069380D01*
X34996589Y-49037346D01*
X34995000Y-49005000D01*
X34995000Y-47515000D01*
X34996589Y-47482654D01*
X35001341Y-47450620D01*
X35009210Y-47419206D01*
X35020120Y-47388714D01*
X35033966Y-47359439D01*
X35050615Y-47331662D01*
X35069907Y-47305650D01*
X35091655Y-47281655D01*
X35115650Y-47259907D01*
X35141662Y-47240615D01*
X35169439Y-47223966D01*
X35198714Y-47210120D01*
X35229206Y-47199210D01*
X35260620Y-47191341D01*
X35292654Y-47186589D01*
X35325000Y-47185000D01*
X36315000Y-47185000D01*
X36347346Y-47186589D01*
X36347346Y-47186589D01*
G37*
D15*
X35820000Y-48260000D03*
D14*
G36*
X33547346Y-47186589D02*
X33579380Y-47191341D01*
X33610794Y-47199210D01*
X33641286Y-47210120D01*
X33670561Y-47223966D01*
X33698338Y-47240615D01*
X33724350Y-47259907D01*
X33748345Y-47281655D01*
X33770093Y-47305650D01*
X33789385Y-47331662D01*
X33806034Y-47359439D01*
X33819880Y-47388714D01*
X33830790Y-47419206D01*
X33838659Y-47450620D01*
X33843411Y-47482654D01*
X33845000Y-47515000D01*
X33845000Y-49005000D01*
X33843411Y-49037346D01*
X33838659Y-49069380D01*
X33830790Y-49100794D01*
X33819880Y-49131286D01*
X33806034Y-49160561D01*
X33789385Y-49188338D01*
X33770093Y-49214350D01*
X33748345Y-49238345D01*
X33724350Y-49260093D01*
X33698338Y-49279385D01*
X33670561Y-49296034D01*
X33641286Y-49309880D01*
X33610794Y-49320790D01*
X33579380Y-49328659D01*
X33547346Y-49333411D01*
X33515000Y-49335000D01*
X32525000Y-49335000D01*
X32492654Y-49333411D01*
X32460620Y-49328659D01*
X32429206Y-49320790D01*
X32398714Y-49309880D01*
X32369439Y-49296034D01*
X32341662Y-49279385D01*
X32315650Y-49260093D01*
X32291655Y-49238345D01*
X32269907Y-49214350D01*
X32250615Y-49188338D01*
X32233966Y-49160561D01*
X32220120Y-49131286D01*
X32209210Y-49100794D01*
X32201341Y-49069380D01*
X32196589Y-49037346D01*
X32195000Y-49005000D01*
X32195000Y-47515000D01*
X32196589Y-47482654D01*
X32201341Y-47450620D01*
X32209210Y-47419206D01*
X32220120Y-47388714D01*
X32233966Y-47359439D01*
X32250615Y-47331662D01*
X32269907Y-47305650D01*
X32291655Y-47281655D01*
X32315650Y-47259907D01*
X32341662Y-47240615D01*
X32369439Y-47223966D01*
X32398714Y-47210120D01*
X32429206Y-47199210D01*
X32460620Y-47191341D01*
X32492654Y-47186589D01*
X32525000Y-47185000D01*
X33515000Y-47185000D01*
X33547346Y-47186589D01*
X33547346Y-47186589D01*
G37*
D15*
X33020000Y-48260000D03*
G04 #@! TD*
D14*
G04 #@! TO.C,R6*
G36*
X33547346Y-49726589D02*
X33579380Y-49731341D01*
X33610794Y-49739210D01*
X33641286Y-49750120D01*
X33670561Y-49763966D01*
X33698338Y-49780615D01*
X33724350Y-49799907D01*
X33748345Y-49821655D01*
X33770093Y-49845650D01*
X33789385Y-49871662D01*
X33806034Y-49899439D01*
X33819880Y-49928714D01*
X33830790Y-49959206D01*
X33838659Y-49990620D01*
X33843411Y-50022654D01*
X33845000Y-50055000D01*
X33845000Y-51545000D01*
X33843411Y-51577346D01*
X33838659Y-51609380D01*
X33830790Y-51640794D01*
X33819880Y-51671286D01*
X33806034Y-51700561D01*
X33789385Y-51728338D01*
X33770093Y-51754350D01*
X33748345Y-51778345D01*
X33724350Y-51800093D01*
X33698338Y-51819385D01*
X33670561Y-51836034D01*
X33641286Y-51849880D01*
X33610794Y-51860790D01*
X33579380Y-51868659D01*
X33547346Y-51873411D01*
X33515000Y-51875000D01*
X32525000Y-51875000D01*
X32492654Y-51873411D01*
X32460620Y-51868659D01*
X32429206Y-51860790D01*
X32398714Y-51849880D01*
X32369439Y-51836034D01*
X32341662Y-51819385D01*
X32315650Y-51800093D01*
X32291655Y-51778345D01*
X32269907Y-51754350D01*
X32250615Y-51728338D01*
X32233966Y-51700561D01*
X32220120Y-51671286D01*
X32209210Y-51640794D01*
X32201341Y-51609380D01*
X32196589Y-51577346D01*
X32195000Y-51545000D01*
X32195000Y-50055000D01*
X32196589Y-50022654D01*
X32201341Y-49990620D01*
X32209210Y-49959206D01*
X32220120Y-49928714D01*
X32233966Y-49899439D01*
X32250615Y-49871662D01*
X32269907Y-49845650D01*
X32291655Y-49821655D01*
X32315650Y-49799907D01*
X32341662Y-49780615D01*
X32369439Y-49763966D01*
X32398714Y-49750120D01*
X32429206Y-49739210D01*
X32460620Y-49731341D01*
X32492654Y-49726589D01*
X32525000Y-49725000D01*
X33515000Y-49725000D01*
X33547346Y-49726589D01*
X33547346Y-49726589D01*
G37*
D15*
X33020000Y-50800000D03*
D14*
G36*
X36347346Y-49726589D02*
X36379380Y-49731341D01*
X36410794Y-49739210D01*
X36441286Y-49750120D01*
X36470561Y-49763966D01*
X36498338Y-49780615D01*
X36524350Y-49799907D01*
X36548345Y-49821655D01*
X36570093Y-49845650D01*
X36589385Y-49871662D01*
X36606034Y-49899439D01*
X36619880Y-49928714D01*
X36630790Y-49959206D01*
X36638659Y-49990620D01*
X36643411Y-50022654D01*
X36645000Y-50055000D01*
X36645000Y-51545000D01*
X36643411Y-51577346D01*
X36638659Y-51609380D01*
X36630790Y-51640794D01*
X36619880Y-51671286D01*
X36606034Y-51700561D01*
X36589385Y-51728338D01*
X36570093Y-51754350D01*
X36548345Y-51778345D01*
X36524350Y-51800093D01*
X36498338Y-51819385D01*
X36470561Y-51836034D01*
X36441286Y-51849880D01*
X36410794Y-51860790D01*
X36379380Y-51868659D01*
X36347346Y-51873411D01*
X36315000Y-51875000D01*
X35325000Y-51875000D01*
X35292654Y-51873411D01*
X35260620Y-51868659D01*
X35229206Y-51860790D01*
X35198714Y-51849880D01*
X35169439Y-51836034D01*
X35141662Y-51819385D01*
X35115650Y-51800093D01*
X35091655Y-51778345D01*
X35069907Y-51754350D01*
X35050615Y-51728338D01*
X35033966Y-51700561D01*
X35020120Y-51671286D01*
X35009210Y-51640794D01*
X35001341Y-51609380D01*
X34996589Y-51577346D01*
X34995000Y-51545000D01*
X34995000Y-50055000D01*
X34996589Y-50022654D01*
X35001341Y-49990620D01*
X35009210Y-49959206D01*
X35020120Y-49928714D01*
X35033966Y-49899439D01*
X35050615Y-49871662D01*
X35069907Y-49845650D01*
X35091655Y-49821655D01*
X35115650Y-49799907D01*
X35141662Y-49780615D01*
X35169439Y-49763966D01*
X35198714Y-49750120D01*
X35229206Y-49739210D01*
X35260620Y-49731341D01*
X35292654Y-49726589D01*
X35325000Y-49725000D01*
X36315000Y-49725000D01*
X36347346Y-49726589D01*
X36347346Y-49726589D01*
G37*
D15*
X35820000Y-50800000D03*
G04 #@! TD*
D14*
G04 #@! TO.C,R7*
G36*
X36347346Y-52266589D02*
X36379380Y-52271341D01*
X36410794Y-52279210D01*
X36441286Y-52290120D01*
X36470561Y-52303966D01*
X36498338Y-52320615D01*
X36524350Y-52339907D01*
X36548345Y-52361655D01*
X36570093Y-52385650D01*
X36589385Y-52411662D01*
X36606034Y-52439439D01*
X36619880Y-52468714D01*
X36630790Y-52499206D01*
X36638659Y-52530620D01*
X36643411Y-52562654D01*
X36645000Y-52595000D01*
X36645000Y-54085000D01*
X36643411Y-54117346D01*
X36638659Y-54149380D01*
X36630790Y-54180794D01*
X36619880Y-54211286D01*
X36606034Y-54240561D01*
X36589385Y-54268338D01*
X36570093Y-54294350D01*
X36548345Y-54318345D01*
X36524350Y-54340093D01*
X36498338Y-54359385D01*
X36470561Y-54376034D01*
X36441286Y-54389880D01*
X36410794Y-54400790D01*
X36379380Y-54408659D01*
X36347346Y-54413411D01*
X36315000Y-54415000D01*
X35325000Y-54415000D01*
X35292654Y-54413411D01*
X35260620Y-54408659D01*
X35229206Y-54400790D01*
X35198714Y-54389880D01*
X35169439Y-54376034D01*
X35141662Y-54359385D01*
X35115650Y-54340093D01*
X35091655Y-54318345D01*
X35069907Y-54294350D01*
X35050615Y-54268338D01*
X35033966Y-54240561D01*
X35020120Y-54211286D01*
X35009210Y-54180794D01*
X35001341Y-54149380D01*
X34996589Y-54117346D01*
X34995000Y-54085000D01*
X34995000Y-52595000D01*
X34996589Y-52562654D01*
X35001341Y-52530620D01*
X35009210Y-52499206D01*
X35020120Y-52468714D01*
X35033966Y-52439439D01*
X35050615Y-52411662D01*
X35069907Y-52385650D01*
X35091655Y-52361655D01*
X35115650Y-52339907D01*
X35141662Y-52320615D01*
X35169439Y-52303966D01*
X35198714Y-52290120D01*
X35229206Y-52279210D01*
X35260620Y-52271341D01*
X35292654Y-52266589D01*
X35325000Y-52265000D01*
X36315000Y-52265000D01*
X36347346Y-52266589D01*
X36347346Y-52266589D01*
G37*
D15*
X35820000Y-53340000D03*
D14*
G36*
X33547346Y-52266589D02*
X33579380Y-52271341D01*
X33610794Y-52279210D01*
X33641286Y-52290120D01*
X33670561Y-52303966D01*
X33698338Y-52320615D01*
X33724350Y-52339907D01*
X33748345Y-52361655D01*
X33770093Y-52385650D01*
X33789385Y-52411662D01*
X33806034Y-52439439D01*
X33819880Y-52468714D01*
X33830790Y-52499206D01*
X33838659Y-52530620D01*
X33843411Y-52562654D01*
X33845000Y-52595000D01*
X33845000Y-54085000D01*
X33843411Y-54117346D01*
X33838659Y-54149380D01*
X33830790Y-54180794D01*
X33819880Y-54211286D01*
X33806034Y-54240561D01*
X33789385Y-54268338D01*
X33770093Y-54294350D01*
X33748345Y-54318345D01*
X33724350Y-54340093D01*
X33698338Y-54359385D01*
X33670561Y-54376034D01*
X33641286Y-54389880D01*
X33610794Y-54400790D01*
X33579380Y-54408659D01*
X33547346Y-54413411D01*
X33515000Y-54415000D01*
X32525000Y-54415000D01*
X32492654Y-54413411D01*
X32460620Y-54408659D01*
X32429206Y-54400790D01*
X32398714Y-54389880D01*
X32369439Y-54376034D01*
X32341662Y-54359385D01*
X32315650Y-54340093D01*
X32291655Y-54318345D01*
X32269907Y-54294350D01*
X32250615Y-54268338D01*
X32233966Y-54240561D01*
X32220120Y-54211286D01*
X32209210Y-54180794D01*
X32201341Y-54149380D01*
X32196589Y-54117346D01*
X32195000Y-54085000D01*
X32195000Y-52595000D01*
X32196589Y-52562654D01*
X32201341Y-52530620D01*
X32209210Y-52499206D01*
X32220120Y-52468714D01*
X32233966Y-52439439D01*
X32250615Y-52411662D01*
X32269907Y-52385650D01*
X32291655Y-52361655D01*
X32315650Y-52339907D01*
X32341662Y-52320615D01*
X32369439Y-52303966D01*
X32398714Y-52290120D01*
X32429206Y-52279210D01*
X32460620Y-52271341D01*
X32492654Y-52266589D01*
X32525000Y-52265000D01*
X33515000Y-52265000D01*
X33547346Y-52266589D01*
X33547346Y-52266589D01*
G37*
D15*
X33020000Y-53340000D03*
G04 #@! TD*
D14*
G04 #@! TO.C,R8*
G36*
X33547346Y-54806589D02*
X33579380Y-54811341D01*
X33610794Y-54819210D01*
X33641286Y-54830120D01*
X33670561Y-54843966D01*
X33698338Y-54860615D01*
X33724350Y-54879907D01*
X33748345Y-54901655D01*
X33770093Y-54925650D01*
X33789385Y-54951662D01*
X33806034Y-54979439D01*
X33819880Y-55008714D01*
X33830790Y-55039206D01*
X33838659Y-55070620D01*
X33843411Y-55102654D01*
X33845000Y-55135000D01*
X33845000Y-56625000D01*
X33843411Y-56657346D01*
X33838659Y-56689380D01*
X33830790Y-56720794D01*
X33819880Y-56751286D01*
X33806034Y-56780561D01*
X33789385Y-56808338D01*
X33770093Y-56834350D01*
X33748345Y-56858345D01*
X33724350Y-56880093D01*
X33698338Y-56899385D01*
X33670561Y-56916034D01*
X33641286Y-56929880D01*
X33610794Y-56940790D01*
X33579380Y-56948659D01*
X33547346Y-56953411D01*
X33515000Y-56955000D01*
X32525000Y-56955000D01*
X32492654Y-56953411D01*
X32460620Y-56948659D01*
X32429206Y-56940790D01*
X32398714Y-56929880D01*
X32369439Y-56916034D01*
X32341662Y-56899385D01*
X32315650Y-56880093D01*
X32291655Y-56858345D01*
X32269907Y-56834350D01*
X32250615Y-56808338D01*
X32233966Y-56780561D01*
X32220120Y-56751286D01*
X32209210Y-56720794D01*
X32201341Y-56689380D01*
X32196589Y-56657346D01*
X32195000Y-56625000D01*
X32195000Y-55135000D01*
X32196589Y-55102654D01*
X32201341Y-55070620D01*
X32209210Y-55039206D01*
X32220120Y-55008714D01*
X32233966Y-54979439D01*
X32250615Y-54951662D01*
X32269907Y-54925650D01*
X32291655Y-54901655D01*
X32315650Y-54879907D01*
X32341662Y-54860615D01*
X32369439Y-54843966D01*
X32398714Y-54830120D01*
X32429206Y-54819210D01*
X32460620Y-54811341D01*
X32492654Y-54806589D01*
X32525000Y-54805000D01*
X33515000Y-54805000D01*
X33547346Y-54806589D01*
X33547346Y-54806589D01*
G37*
D15*
X33020000Y-55880000D03*
D14*
G36*
X36347346Y-54806589D02*
X36379380Y-54811341D01*
X36410794Y-54819210D01*
X36441286Y-54830120D01*
X36470561Y-54843966D01*
X36498338Y-54860615D01*
X36524350Y-54879907D01*
X36548345Y-54901655D01*
X36570093Y-54925650D01*
X36589385Y-54951662D01*
X36606034Y-54979439D01*
X36619880Y-55008714D01*
X36630790Y-55039206D01*
X36638659Y-55070620D01*
X36643411Y-55102654D01*
X36645000Y-55135000D01*
X36645000Y-56625000D01*
X36643411Y-56657346D01*
X36638659Y-56689380D01*
X36630790Y-56720794D01*
X36619880Y-56751286D01*
X36606034Y-56780561D01*
X36589385Y-56808338D01*
X36570093Y-56834350D01*
X36548345Y-56858345D01*
X36524350Y-56880093D01*
X36498338Y-56899385D01*
X36470561Y-56916034D01*
X36441286Y-56929880D01*
X36410794Y-56940790D01*
X36379380Y-56948659D01*
X36347346Y-56953411D01*
X36315000Y-56955000D01*
X35325000Y-56955000D01*
X35292654Y-56953411D01*
X35260620Y-56948659D01*
X35229206Y-56940790D01*
X35198714Y-56929880D01*
X35169439Y-56916034D01*
X35141662Y-56899385D01*
X35115650Y-56880093D01*
X35091655Y-56858345D01*
X35069907Y-56834350D01*
X35050615Y-56808338D01*
X35033966Y-56780561D01*
X35020120Y-56751286D01*
X35009210Y-56720794D01*
X35001341Y-56689380D01*
X34996589Y-56657346D01*
X34995000Y-56625000D01*
X34995000Y-55135000D01*
X34996589Y-55102654D01*
X35001341Y-55070620D01*
X35009210Y-55039206D01*
X35020120Y-55008714D01*
X35033966Y-54979439D01*
X35050615Y-54951662D01*
X35069907Y-54925650D01*
X35091655Y-54901655D01*
X35115650Y-54879907D01*
X35141662Y-54860615D01*
X35169439Y-54843966D01*
X35198714Y-54830120D01*
X35229206Y-54819210D01*
X35260620Y-54811341D01*
X35292654Y-54806589D01*
X35325000Y-54805000D01*
X36315000Y-54805000D01*
X36347346Y-54806589D01*
X36347346Y-54806589D01*
G37*
D15*
X35820000Y-55880000D03*
G04 #@! TD*
D14*
G04 #@! TO.C,R9*
G36*
X36347346Y-57346589D02*
X36379380Y-57351341D01*
X36410794Y-57359210D01*
X36441286Y-57370120D01*
X36470561Y-57383966D01*
X36498338Y-57400615D01*
X36524350Y-57419907D01*
X36548345Y-57441655D01*
X36570093Y-57465650D01*
X36589385Y-57491662D01*
X36606034Y-57519439D01*
X36619880Y-57548714D01*
X36630790Y-57579206D01*
X36638659Y-57610620D01*
X36643411Y-57642654D01*
X36645000Y-57675000D01*
X36645000Y-59165000D01*
X36643411Y-59197346D01*
X36638659Y-59229380D01*
X36630790Y-59260794D01*
X36619880Y-59291286D01*
X36606034Y-59320561D01*
X36589385Y-59348338D01*
X36570093Y-59374350D01*
X36548345Y-59398345D01*
X36524350Y-59420093D01*
X36498338Y-59439385D01*
X36470561Y-59456034D01*
X36441286Y-59469880D01*
X36410794Y-59480790D01*
X36379380Y-59488659D01*
X36347346Y-59493411D01*
X36315000Y-59495000D01*
X35325000Y-59495000D01*
X35292654Y-59493411D01*
X35260620Y-59488659D01*
X35229206Y-59480790D01*
X35198714Y-59469880D01*
X35169439Y-59456034D01*
X35141662Y-59439385D01*
X35115650Y-59420093D01*
X35091655Y-59398345D01*
X35069907Y-59374350D01*
X35050615Y-59348338D01*
X35033966Y-59320561D01*
X35020120Y-59291286D01*
X35009210Y-59260794D01*
X35001341Y-59229380D01*
X34996589Y-59197346D01*
X34995000Y-59165000D01*
X34995000Y-57675000D01*
X34996589Y-57642654D01*
X35001341Y-57610620D01*
X35009210Y-57579206D01*
X35020120Y-57548714D01*
X35033966Y-57519439D01*
X35050615Y-57491662D01*
X35069907Y-57465650D01*
X35091655Y-57441655D01*
X35115650Y-57419907D01*
X35141662Y-57400615D01*
X35169439Y-57383966D01*
X35198714Y-57370120D01*
X35229206Y-57359210D01*
X35260620Y-57351341D01*
X35292654Y-57346589D01*
X35325000Y-57345000D01*
X36315000Y-57345000D01*
X36347346Y-57346589D01*
X36347346Y-57346589D01*
G37*
D15*
X35820000Y-58420000D03*
D14*
G36*
X33547346Y-57346589D02*
X33579380Y-57351341D01*
X33610794Y-57359210D01*
X33641286Y-57370120D01*
X33670561Y-57383966D01*
X33698338Y-57400615D01*
X33724350Y-57419907D01*
X33748345Y-57441655D01*
X33770093Y-57465650D01*
X33789385Y-57491662D01*
X33806034Y-57519439D01*
X33819880Y-57548714D01*
X33830790Y-57579206D01*
X33838659Y-57610620D01*
X33843411Y-57642654D01*
X33845000Y-57675000D01*
X33845000Y-59165000D01*
X33843411Y-59197346D01*
X33838659Y-59229380D01*
X33830790Y-59260794D01*
X33819880Y-59291286D01*
X33806034Y-59320561D01*
X33789385Y-59348338D01*
X33770093Y-59374350D01*
X33748345Y-59398345D01*
X33724350Y-59420093D01*
X33698338Y-59439385D01*
X33670561Y-59456034D01*
X33641286Y-59469880D01*
X33610794Y-59480790D01*
X33579380Y-59488659D01*
X33547346Y-59493411D01*
X33515000Y-59495000D01*
X32525000Y-59495000D01*
X32492654Y-59493411D01*
X32460620Y-59488659D01*
X32429206Y-59480790D01*
X32398714Y-59469880D01*
X32369439Y-59456034D01*
X32341662Y-59439385D01*
X32315650Y-59420093D01*
X32291655Y-59398345D01*
X32269907Y-59374350D01*
X32250615Y-59348338D01*
X32233966Y-59320561D01*
X32220120Y-59291286D01*
X32209210Y-59260794D01*
X32201341Y-59229380D01*
X32196589Y-59197346D01*
X32195000Y-59165000D01*
X32195000Y-57675000D01*
X32196589Y-57642654D01*
X32201341Y-57610620D01*
X32209210Y-57579206D01*
X32220120Y-57548714D01*
X32233966Y-57519439D01*
X32250615Y-57491662D01*
X32269907Y-57465650D01*
X32291655Y-57441655D01*
X32315650Y-57419907D01*
X32341662Y-57400615D01*
X32369439Y-57383966D01*
X32398714Y-57370120D01*
X32429206Y-57359210D01*
X32460620Y-57351341D01*
X32492654Y-57346589D01*
X32525000Y-57345000D01*
X33515000Y-57345000D01*
X33547346Y-57346589D01*
X33547346Y-57346589D01*
G37*
D15*
X33020000Y-58420000D03*
G04 #@! TD*
D14*
G04 #@! TO.C,R10*
G36*
X33547346Y-59886589D02*
X33579380Y-59891341D01*
X33610794Y-59899210D01*
X33641286Y-59910120D01*
X33670561Y-59923966D01*
X33698338Y-59940615D01*
X33724350Y-59959907D01*
X33748345Y-59981655D01*
X33770093Y-60005650D01*
X33789385Y-60031662D01*
X33806034Y-60059439D01*
X33819880Y-60088714D01*
X33830790Y-60119206D01*
X33838659Y-60150620D01*
X33843411Y-60182654D01*
X33845000Y-60215000D01*
X33845000Y-61705000D01*
X33843411Y-61737346D01*
X33838659Y-61769380D01*
X33830790Y-61800794D01*
X33819880Y-61831286D01*
X33806034Y-61860561D01*
X33789385Y-61888338D01*
X33770093Y-61914350D01*
X33748345Y-61938345D01*
X33724350Y-61960093D01*
X33698338Y-61979385D01*
X33670561Y-61996034D01*
X33641286Y-62009880D01*
X33610794Y-62020790D01*
X33579380Y-62028659D01*
X33547346Y-62033411D01*
X33515000Y-62035000D01*
X32525000Y-62035000D01*
X32492654Y-62033411D01*
X32460620Y-62028659D01*
X32429206Y-62020790D01*
X32398714Y-62009880D01*
X32369439Y-61996034D01*
X32341662Y-61979385D01*
X32315650Y-61960093D01*
X32291655Y-61938345D01*
X32269907Y-61914350D01*
X32250615Y-61888338D01*
X32233966Y-61860561D01*
X32220120Y-61831286D01*
X32209210Y-61800794D01*
X32201341Y-61769380D01*
X32196589Y-61737346D01*
X32195000Y-61705000D01*
X32195000Y-60215000D01*
X32196589Y-60182654D01*
X32201341Y-60150620D01*
X32209210Y-60119206D01*
X32220120Y-60088714D01*
X32233966Y-60059439D01*
X32250615Y-60031662D01*
X32269907Y-60005650D01*
X32291655Y-59981655D01*
X32315650Y-59959907D01*
X32341662Y-59940615D01*
X32369439Y-59923966D01*
X32398714Y-59910120D01*
X32429206Y-59899210D01*
X32460620Y-59891341D01*
X32492654Y-59886589D01*
X32525000Y-59885000D01*
X33515000Y-59885000D01*
X33547346Y-59886589D01*
X33547346Y-59886589D01*
G37*
D15*
X33020000Y-60960000D03*
D14*
G36*
X36347346Y-59886589D02*
X36379380Y-59891341D01*
X36410794Y-59899210D01*
X36441286Y-59910120D01*
X36470561Y-59923966D01*
X36498338Y-59940615D01*
X36524350Y-59959907D01*
X36548345Y-59981655D01*
X36570093Y-60005650D01*
X36589385Y-60031662D01*
X36606034Y-60059439D01*
X36619880Y-60088714D01*
X36630790Y-60119206D01*
X36638659Y-60150620D01*
X36643411Y-60182654D01*
X36645000Y-60215000D01*
X36645000Y-61705000D01*
X36643411Y-61737346D01*
X36638659Y-61769380D01*
X36630790Y-61800794D01*
X36619880Y-61831286D01*
X36606034Y-61860561D01*
X36589385Y-61888338D01*
X36570093Y-61914350D01*
X36548345Y-61938345D01*
X36524350Y-61960093D01*
X36498338Y-61979385D01*
X36470561Y-61996034D01*
X36441286Y-62009880D01*
X36410794Y-62020790D01*
X36379380Y-62028659D01*
X36347346Y-62033411D01*
X36315000Y-62035000D01*
X35325000Y-62035000D01*
X35292654Y-62033411D01*
X35260620Y-62028659D01*
X35229206Y-62020790D01*
X35198714Y-62009880D01*
X35169439Y-61996034D01*
X35141662Y-61979385D01*
X35115650Y-61960093D01*
X35091655Y-61938345D01*
X35069907Y-61914350D01*
X35050615Y-61888338D01*
X35033966Y-61860561D01*
X35020120Y-61831286D01*
X35009210Y-61800794D01*
X35001341Y-61769380D01*
X34996589Y-61737346D01*
X34995000Y-61705000D01*
X34995000Y-60215000D01*
X34996589Y-60182654D01*
X35001341Y-60150620D01*
X35009210Y-60119206D01*
X35020120Y-60088714D01*
X35033966Y-60059439D01*
X35050615Y-60031662D01*
X35069907Y-60005650D01*
X35091655Y-59981655D01*
X35115650Y-59959907D01*
X35141662Y-59940615D01*
X35169439Y-59923966D01*
X35198714Y-59910120D01*
X35229206Y-59899210D01*
X35260620Y-59891341D01*
X35292654Y-59886589D01*
X35325000Y-59885000D01*
X36315000Y-59885000D01*
X36347346Y-59886589D01*
X36347346Y-59886589D01*
G37*
D15*
X35820000Y-60960000D03*
G04 #@! TD*
D14*
G04 #@! TO.C,R11*
G36*
X33547346Y-62426589D02*
X33579380Y-62431341D01*
X33610794Y-62439210D01*
X33641286Y-62450120D01*
X33670561Y-62463966D01*
X33698338Y-62480615D01*
X33724350Y-62499907D01*
X33748345Y-62521655D01*
X33770093Y-62545650D01*
X33789385Y-62571662D01*
X33806034Y-62599439D01*
X33819880Y-62628714D01*
X33830790Y-62659206D01*
X33838659Y-62690620D01*
X33843411Y-62722654D01*
X33845000Y-62755000D01*
X33845000Y-64245000D01*
X33843411Y-64277346D01*
X33838659Y-64309380D01*
X33830790Y-64340794D01*
X33819880Y-64371286D01*
X33806034Y-64400561D01*
X33789385Y-64428338D01*
X33770093Y-64454350D01*
X33748345Y-64478345D01*
X33724350Y-64500093D01*
X33698338Y-64519385D01*
X33670561Y-64536034D01*
X33641286Y-64549880D01*
X33610794Y-64560790D01*
X33579380Y-64568659D01*
X33547346Y-64573411D01*
X33515000Y-64575000D01*
X32525000Y-64575000D01*
X32492654Y-64573411D01*
X32460620Y-64568659D01*
X32429206Y-64560790D01*
X32398714Y-64549880D01*
X32369439Y-64536034D01*
X32341662Y-64519385D01*
X32315650Y-64500093D01*
X32291655Y-64478345D01*
X32269907Y-64454350D01*
X32250615Y-64428338D01*
X32233966Y-64400561D01*
X32220120Y-64371286D01*
X32209210Y-64340794D01*
X32201341Y-64309380D01*
X32196589Y-64277346D01*
X32195000Y-64245000D01*
X32195000Y-62755000D01*
X32196589Y-62722654D01*
X32201341Y-62690620D01*
X32209210Y-62659206D01*
X32220120Y-62628714D01*
X32233966Y-62599439D01*
X32250615Y-62571662D01*
X32269907Y-62545650D01*
X32291655Y-62521655D01*
X32315650Y-62499907D01*
X32341662Y-62480615D01*
X32369439Y-62463966D01*
X32398714Y-62450120D01*
X32429206Y-62439210D01*
X32460620Y-62431341D01*
X32492654Y-62426589D01*
X32525000Y-62425000D01*
X33515000Y-62425000D01*
X33547346Y-62426589D01*
X33547346Y-62426589D01*
G37*
D15*
X33020000Y-63500000D03*
D14*
G36*
X36347346Y-62426589D02*
X36379380Y-62431341D01*
X36410794Y-62439210D01*
X36441286Y-62450120D01*
X36470561Y-62463966D01*
X36498338Y-62480615D01*
X36524350Y-62499907D01*
X36548345Y-62521655D01*
X36570093Y-62545650D01*
X36589385Y-62571662D01*
X36606034Y-62599439D01*
X36619880Y-62628714D01*
X36630790Y-62659206D01*
X36638659Y-62690620D01*
X36643411Y-62722654D01*
X36645000Y-62755000D01*
X36645000Y-64245000D01*
X36643411Y-64277346D01*
X36638659Y-64309380D01*
X36630790Y-64340794D01*
X36619880Y-64371286D01*
X36606034Y-64400561D01*
X36589385Y-64428338D01*
X36570093Y-64454350D01*
X36548345Y-64478345D01*
X36524350Y-64500093D01*
X36498338Y-64519385D01*
X36470561Y-64536034D01*
X36441286Y-64549880D01*
X36410794Y-64560790D01*
X36379380Y-64568659D01*
X36347346Y-64573411D01*
X36315000Y-64575000D01*
X35325000Y-64575000D01*
X35292654Y-64573411D01*
X35260620Y-64568659D01*
X35229206Y-64560790D01*
X35198714Y-64549880D01*
X35169439Y-64536034D01*
X35141662Y-64519385D01*
X35115650Y-64500093D01*
X35091655Y-64478345D01*
X35069907Y-64454350D01*
X35050615Y-64428338D01*
X35033966Y-64400561D01*
X35020120Y-64371286D01*
X35009210Y-64340794D01*
X35001341Y-64309380D01*
X34996589Y-64277346D01*
X34995000Y-64245000D01*
X34995000Y-62755000D01*
X34996589Y-62722654D01*
X35001341Y-62690620D01*
X35009210Y-62659206D01*
X35020120Y-62628714D01*
X35033966Y-62599439D01*
X35050615Y-62571662D01*
X35069907Y-62545650D01*
X35091655Y-62521655D01*
X35115650Y-62499907D01*
X35141662Y-62480615D01*
X35169439Y-62463966D01*
X35198714Y-62450120D01*
X35229206Y-62439210D01*
X35260620Y-62431341D01*
X35292654Y-62426589D01*
X35325000Y-62425000D01*
X36315000Y-62425000D01*
X36347346Y-62426589D01*
X36347346Y-62426589D01*
G37*
D15*
X35820000Y-63500000D03*
G04 #@! TD*
M02*
