G04 #@! TF.GenerationSoftware,KiCad,Pcbnew,(5.0.0)*
G04 #@! TF.CreationDate,2018-10-07T14:33:42+02:00*
G04 #@! TF.ProjectId,LED-panel,4C45442D70616E656C2E6B696361645F,rev?*
G04 #@! TF.SameCoordinates,Original*
G04 #@! TF.FileFunction,Legend,Bot*
G04 #@! TF.FilePolarity,Positive*
%FSLAX46Y46*%
G04 Gerber Fmt 4.6, Leading zero omitted, Abs format (unit mm)*
G04 Created by KiCad (PCBNEW (5.0.0)) date 10/07/18 14:33:42*
%MOMM*%
%LPD*%
G01*
G04 APERTURE LIST*
%ADD10C,0.100000*%
G04 APERTURE END LIST*
D10*
G04 #@! TO.C,svg2mod*
G36*
X35392981Y-58239405D02*
X35665575Y-58050786D01*
X35762468Y-57765274D01*
X35625525Y-57442296D01*
X35407192Y-57357030D01*
X35011868Y-57597325D01*
X34831000Y-57353154D01*
X34554531Y-57270472D01*
X34160498Y-57415166D01*
X33943457Y-57961645D01*
X33987383Y-58203232D01*
X34081692Y-58266535D01*
X34147580Y-58236822D01*
X34176001Y-58163183D01*
X34165666Y-58097295D01*
X34117865Y-57997818D01*
X34070064Y-57890589D01*
X34055853Y-57788529D01*
X34157914Y-57559860D01*
X34399501Y-57461675D01*
X34598455Y-57506892D01*
X34708269Y-57580531D01*
X34801286Y-57732976D01*
X34843919Y-57930638D01*
X34843919Y-57971979D01*
X34882676Y-57971979D01*
X34956315Y-57767857D01*
X35102301Y-57617996D01*
X35289628Y-57571487D01*
X35504085Y-57655461D01*
X35586767Y-57862167D01*
X35372310Y-58196771D01*
X35392981Y-58239405D01*
X35392981Y-58239405D01*
G37*
G36*
X34840044Y-56955246D02*
X34807746Y-56702031D01*
X34217343Y-56612889D01*
X34024848Y-56393265D01*
X34086859Y-56248571D01*
X34297441Y-56134882D01*
X34924018Y-56075455D01*
X35423987Y-56137466D01*
X35634569Y-56257614D01*
X35677202Y-56385513D01*
X35598395Y-56541834D01*
X35261206Y-56668441D01*
X34807746Y-56702031D01*
X34840044Y-56955246D01*
X35355516Y-56864812D01*
X35678494Y-56624517D01*
X35762468Y-56384221D01*
X35557054Y-56022486D01*
X34867174Y-55822240D01*
X34349117Y-55910090D01*
X34039059Y-56134882D01*
X33943457Y-56397140D01*
X34239305Y-56814428D01*
X34840044Y-56955246D01*
X34840044Y-56955246D01*
G37*
G36*
X35554470Y-55417872D02*
X35762468Y-54991541D01*
X35762468Y-54948908D01*
X34283230Y-54948908D01*
X34099779Y-54937281D01*
X34044226Y-54885604D01*
X34022264Y-54727991D01*
X33974463Y-54727991D01*
X33974463Y-55386866D01*
X34022264Y-55386866D01*
X34042934Y-55226669D01*
X34093319Y-55176284D01*
X34283230Y-55162075D01*
X35228908Y-55162075D01*
X35474371Y-55174995D01*
X35535091Y-55208585D01*
X35554469Y-55265429D01*
X35514420Y-55398496D01*
X35554469Y-55417873D01*
X35554470Y-55417872D01*
X35554470Y-55417872D01*
G37*
G36*
X34620419Y-53173823D02*
X34436967Y-53173823D01*
X34620419Y-53622115D01*
X35489875Y-53622115D01*
X34620419Y-54237065D01*
X34620419Y-53622115D01*
X34436967Y-53173823D01*
X34436967Y-53408950D01*
X33974463Y-53408950D01*
X33974463Y-53622115D01*
X34436967Y-53622115D01*
X34436967Y-54363673D01*
X34602332Y-54363673D01*
X35762468Y-53551061D01*
X35762468Y-53408950D01*
X34620419Y-53408950D01*
X34620419Y-53173823D01*
X34620419Y-53173823D01*
G37*
G36*
X34458930Y-50903935D02*
X34449887Y-50861306D01*
X33974463Y-51011167D01*
X33974463Y-52367674D01*
X34022264Y-52367674D01*
X34022264Y-52301786D01*
X34094611Y-52142881D01*
X34285814Y-52115754D01*
X35416236Y-52115754D01*
X35621650Y-52151924D01*
X35678494Y-52301785D01*
X35678494Y-52367673D01*
X35726295Y-52367673D01*
X35726295Y-51574439D01*
X35678494Y-51574439D01*
X35652656Y-51770810D01*
X35584185Y-51847036D01*
X35386522Y-51867703D01*
X34285814Y-51867703D01*
X34138537Y-51847036D01*
X34098488Y-51799233D01*
X34085568Y-51597695D01*
X34085568Y-51469796D01*
X34115282Y-51186868D01*
X34219927Y-51038298D01*
X34458930Y-50903939D01*
X34458930Y-50903935D01*
X34458930Y-50903935D01*
G37*
G36*
X35630693Y-50250229D02*
X34938229Y-50250229D01*
X34938229Y-49865240D01*
X34983446Y-49664993D01*
X35192735Y-49590063D01*
X35192735Y-49542260D01*
X34582953Y-49542260D01*
X34582953Y-49590063D01*
X34747026Y-49626241D01*
X34818081Y-49702466D01*
X34843920Y-49865247D01*
X34843920Y-50250237D01*
X34266435Y-50250237D01*
X34124325Y-50239899D01*
X34084276Y-50203721D01*
X34070065Y-50105535D01*
X34070065Y-49808396D01*
X34090735Y-49592647D01*
X34172126Y-49463456D01*
X34413713Y-49299383D01*
X34413713Y-49247703D01*
X33974463Y-49398856D01*
X33974463Y-50748903D01*
X34022264Y-50748903D01*
X34022264Y-50686893D01*
X34051978Y-50569329D01*
X34113990Y-50513779D01*
X34283230Y-50498277D01*
X35421403Y-50498277D01*
X35626817Y-50531864D01*
X35678493Y-50686894D01*
X35678493Y-50748904D01*
X35726295Y-50748904D01*
X35726295Y-49398857D01*
X35342597Y-49379476D01*
X35342597Y-49429862D01*
X35532508Y-49490585D01*
X35611315Y-49587478D01*
X35630693Y-49769637D01*
X35630693Y-50250228D01*
X35630693Y-50250229D01*
X35630693Y-50250229D01*
G37*
G36*
X33974463Y-49140478D02*
X34022264Y-49140478D01*
X34022264Y-49074590D01*
X34101071Y-48640512D01*
X34064898Y-48365335D01*
X34275479Y-47867950D01*
X34846504Y-47670287D01*
X35418820Y-47867950D01*
X35628110Y-48375670D01*
X35590645Y-48640512D01*
X34101071Y-48640512D01*
X34022264Y-49074590D01*
X34093319Y-48916977D01*
X34284522Y-48888555D01*
X35416236Y-48888555D01*
X35621650Y-48924733D01*
X35678494Y-49074594D01*
X35678494Y-49140482D01*
X35726295Y-49140482D01*
X35726295Y-48427346D01*
X35637153Y-47830484D01*
X35340014Y-47501047D01*
X34859423Y-47375731D01*
X34248349Y-47597940D01*
X33974464Y-48357584D01*
X33974464Y-49140482D01*
X33974463Y-49140478D01*
X33974463Y-49140478D01*
G37*
G36*
X34794827Y-46069605D02*
X34868465Y-46069604D01*
X34849087Y-45948165D01*
X34842627Y-45857731D01*
X34945980Y-45626479D01*
X35215989Y-45528294D01*
X35426571Y-45574801D01*
X35572556Y-45706575D01*
X35621649Y-45900362D01*
X35597102Y-46069602D01*
X34868464Y-46069602D01*
X34868465Y-46069604D01*
X34794827Y-46069605D01*
X34284522Y-46069605D01*
X34079108Y-46033435D01*
X34022264Y-45884866D01*
X34022264Y-45817683D01*
X33974463Y-45817683D01*
X33974463Y-46568283D01*
X34022264Y-46568283D01*
X34022264Y-46502396D01*
X34094611Y-46343491D01*
X34284521Y-46317650D01*
X35416235Y-46317650D01*
X35621649Y-46352533D01*
X35678493Y-46502395D01*
X35678493Y-46568282D01*
X35726295Y-46568282D01*
X35726295Y-45926203D01*
X35677202Y-45555424D01*
X35514422Y-45326756D01*
X35241828Y-45233738D01*
X34893012Y-45375848D01*
X34758654Y-45775049D01*
X34767697Y-45911991D01*
X34794827Y-46069604D01*
X34794827Y-46069605D01*
X34794827Y-46069605D01*
G37*
G36*
X34144996Y-44386245D02*
X34228970Y-44386228D01*
X34679847Y-44386228D01*
X34570034Y-44638152D01*
X34451179Y-44784137D01*
X34315528Y-44828062D01*
X34160499Y-44772513D01*
X34099779Y-44644613D01*
X34228970Y-44386231D01*
X34228970Y-44386228D01*
X34144996Y-44386245D01*
X33982215Y-44614914D01*
X33949917Y-44763484D01*
X34033891Y-44966314D01*
X34254808Y-45045121D01*
X34404669Y-45006361D01*
X34570034Y-44822909D01*
X34758653Y-44386244D01*
X34805162Y-44386244D01*
X35048041Y-44443089D01*
X35113929Y-44605870D01*
X35070004Y-44735060D01*
X34969235Y-44784150D01*
X34894304Y-44781525D01*
X34802578Y-44812530D01*
X34770280Y-44891338D01*
X34803870Y-44970146D01*
X34895596Y-44999864D01*
X35099718Y-44886175D01*
X35192735Y-44567073D01*
X35139767Y-44308691D01*
X35014452Y-44196295D01*
X34787075Y-44173037D01*
X34385291Y-44173037D01*
X34177293Y-44166602D01*
X34126909Y-44145935D01*
X34113990Y-44111052D01*
X34123033Y-44074874D01*
X34217343Y-43970230D01*
X34144996Y-43970230D01*
X33951209Y-44246699D01*
X33995134Y-44347468D01*
X34144996Y-44386228D01*
X34144996Y-44386245D01*
X34144996Y-44386245D01*
G37*
G36*
X34942105Y-43538752D02*
X35192735Y-43142136D01*
X35143643Y-42975479D01*
X34984738Y-42864375D01*
X34747026Y-42835952D01*
X34241889Y-42835952D01*
X34089444Y-42817867D01*
X34039059Y-42772647D01*
X34020973Y-42655083D01*
X33974464Y-42655083D01*
X33974464Y-43240319D01*
X34020973Y-43240319D01*
X34020973Y-43215774D01*
X34045520Y-43100795D01*
X34120450Y-43054287D01*
X34241890Y-43049123D01*
X34726357Y-43049123D01*
X34960192Y-43091752D01*
X35033831Y-43232570D01*
X34865883Y-43538753D01*
X34241890Y-43538753D01*
X34093320Y-43524538D01*
X34037768Y-43475448D01*
X34020973Y-43346257D01*
X33974464Y-43346257D01*
X33974464Y-43931492D01*
X34020973Y-43931492D01*
X34020973Y-43905652D01*
X34066190Y-43784213D01*
X34241890Y-43751913D01*
X34681140Y-43751913D01*
X34940814Y-43762250D01*
X35004118Y-43791960D01*
X35020912Y-43844927D01*
X35001534Y-43931485D01*
X35048043Y-43950866D01*
X35192737Y-43594298D01*
X35192737Y-43538748D01*
X34942106Y-43538748D01*
X34942105Y-43538752D01*
X34942105Y-43538752D01*
G37*
G36*
X34712144Y-42361821D02*
X34787075Y-42361823D01*
X34787075Y-41814053D01*
X34947272Y-41841180D01*
X35060960Y-41938073D01*
X35102301Y-42071140D01*
X35018327Y-42263634D01*
X34787075Y-42361820D01*
X34787075Y-42361823D01*
X34712144Y-42361821D01*
X34298733Y-42233922D01*
X34148871Y-41930323D01*
X34212175Y-41728785D01*
X34431800Y-41584091D01*
X34405961Y-41544044D01*
X34082983Y-41701657D01*
X33938289Y-42028510D01*
X34103654Y-42394121D01*
X34550655Y-42545275D01*
X35023494Y-42390245D01*
X35194027Y-41998796D01*
X35062252Y-41671943D01*
X34712144Y-41544044D01*
X34712144Y-42361823D01*
X34712144Y-42361821D01*
X34712144Y-42361821D01*
G37*
G36*
X35811560Y-40980768D02*
X34241889Y-40980768D01*
X34094611Y-40965266D01*
X34039059Y-40914881D01*
X34020972Y-40789565D01*
X33974463Y-40789565D01*
X33974463Y-41369633D01*
X34020972Y-41369633D01*
X34037767Y-41258528D01*
X34093319Y-41212021D01*
X34241889Y-41195223D01*
X35316759Y-41195223D01*
X35562222Y-41204265D01*
X35625525Y-41233983D01*
X35642320Y-41284369D01*
X35621649Y-41369635D01*
X35666866Y-41391597D01*
X35811560Y-41038906D01*
X35811560Y-40980773D01*
X35811560Y-40980768D01*
X35811560Y-40980768D01*
G37*
G36*
X31762919Y-56159437D02*
X31579467Y-56159437D01*
X31762919Y-56607731D01*
X32632375Y-56607731D01*
X31762919Y-57222680D01*
X31762919Y-56607731D01*
X31579467Y-56159437D01*
X31579467Y-56394565D01*
X31116963Y-56394565D01*
X31116963Y-56607731D01*
X31579467Y-56607731D01*
X31579467Y-57349287D01*
X31744832Y-57349287D01*
X32904968Y-56536675D01*
X32904968Y-56394565D01*
X31762919Y-56394565D01*
X31762919Y-56159437D01*
X31762919Y-56159437D01*
G37*
G36*
X31367594Y-55736983D02*
X31324961Y-55634922D01*
X31224192Y-55593581D01*
X31122131Y-55636214D01*
X31080790Y-55736983D01*
X31122131Y-55839044D01*
X31224192Y-55880385D01*
X31326253Y-55839044D01*
X31367594Y-55736983D01*
X31367594Y-55736983D01*
G37*
G36*
X32868794Y-55140120D02*
X32868794Y-54200901D01*
X32819702Y-54200901D01*
X31080790Y-54784845D01*
X31080790Y-54929538D01*
X32658213Y-54406315D01*
X32658213Y-54888197D01*
X32623331Y-55096195D01*
X32439880Y-55270603D01*
X32454090Y-55308068D01*
X32868794Y-55140120D01*
X32868794Y-55140120D01*
G37*
G36*
X31491617Y-53250055D02*
X31116963Y-53211294D01*
X31116963Y-53991608D01*
X31548461Y-53991608D01*
X31548461Y-53947683D01*
X31417979Y-53886964D01*
X31389557Y-53759065D01*
X31389557Y-53367616D01*
X31427022Y-53367616D01*
X31579467Y-53688012D01*
X31826222Y-53872755D01*
X32142740Y-53941227D01*
X32521270Y-53836582D01*
X32802907Y-53531691D01*
X32902384Y-53066603D01*
X32804199Y-52602807D01*
X32522562Y-52297916D01*
X32142740Y-52193272D01*
X31826222Y-52261741D01*
X31579467Y-52446485D01*
X31427022Y-52766879D01*
X31389557Y-52766879D01*
X31389557Y-52375430D01*
X31417979Y-52246239D01*
X31548461Y-52185516D01*
X31548461Y-52141591D01*
X31116963Y-52141591D01*
X31116963Y-52923196D01*
X31491617Y-52883149D01*
X31660858Y-52644146D01*
X32146616Y-52509787D01*
X32645294Y-52659649D01*
X32813242Y-53060141D01*
X32665964Y-53455465D01*
X32147908Y-53623414D01*
X31815887Y-53571734D01*
X31589803Y-53425747D01*
X31491617Y-53250048D01*
X31491617Y-53250055D01*
X31491617Y-53250055D01*
G37*
G36*
X32335235Y-50106817D02*
X32069102Y-50106817D01*
X32335235Y-49801927D01*
X32291310Y-49684363D01*
X32191833Y-49637855D01*
X32106567Y-49671443D01*
X32071685Y-49751537D01*
X32115610Y-49853598D01*
X32160827Y-49936283D01*
X32134990Y-49986669D01*
X31960582Y-50106816D01*
X31393433Y-50106816D01*
X31244863Y-50082271D01*
X31186728Y-50022843D01*
X31163473Y-49900112D01*
X31116963Y-49900112D01*
X31116963Y-50506018D01*
X31163473Y-50506018D01*
X31191894Y-50371660D01*
X31257782Y-50326439D01*
X31383097Y-50320005D01*
X31841726Y-50320005D01*
X32087189Y-50329047D01*
X32145324Y-50360052D01*
X32163412Y-50415602D01*
X32144034Y-50506036D01*
X32190544Y-50518956D01*
X32335237Y-50161096D01*
X32335237Y-50106833D01*
X32335235Y-50106817D01*
X32335235Y-50106817D01*
G37*
G36*
X31854644Y-49370428D02*
X31441233Y-49242529D01*
X31291371Y-48938930D01*
X31354675Y-48737392D01*
X31574300Y-48592698D01*
X31548462Y-48552651D01*
X31225484Y-48710263D01*
X31080790Y-49037117D01*
X31246155Y-49402728D01*
X31929576Y-49370430D01*
X31929576Y-48822660D01*
X32089773Y-48849787D01*
X32203461Y-48946681D01*
X32244802Y-49079748D01*
X32160828Y-49272243D01*
X31929576Y-49370427D01*
X31929576Y-49370430D01*
X31246155Y-49402728D01*
X31693156Y-49553881D01*
X32165996Y-49398852D01*
X32336528Y-49007403D01*
X32204753Y-48680550D01*
X31854645Y-48552651D01*
X31854645Y-49370430D01*
X31854644Y-49370428D01*
X31854644Y-49370428D01*
G37*
G36*
X32335235Y-47631516D02*
X31932159Y-47631516D01*
X31932159Y-47674146D01*
X32190541Y-47800754D01*
X32259013Y-47995832D01*
X32211212Y-48141818D01*
X32105275Y-48197368D01*
X31981251Y-48156025D01*
X31868855Y-47993244D01*
X31777130Y-47804626D01*
X31439941Y-47542368D01*
X31178975Y-47665099D01*
X31080790Y-47937693D01*
X31119547Y-48185739D01*
X31132467Y-48255504D01*
X31098877Y-48302012D01*
X31098877Y-48344642D01*
X31521332Y-48344642D01*
X31521332Y-48302012D01*
X31248739Y-48163777D01*
X31157013Y-47935109D01*
X31208689Y-47790414D01*
X31335297Y-47733569D01*
X31485158Y-47796874D01*
X31638896Y-48046220D01*
X31806844Y-48291683D01*
X31992880Y-48349819D01*
X32237051Y-48250341D01*
X32335236Y-47990668D01*
X32305522Y-47821428D01*
X32286145Y-47733578D01*
X32295187Y-47701277D01*
X32335236Y-47674150D01*
X32335236Y-47631520D01*
X32335235Y-47631516D01*
X32335235Y-47631516D01*
G37*
G36*
X32954060Y-47066951D02*
X32915303Y-46975226D01*
X32823578Y-46936466D01*
X31384389Y-46959727D01*
X31235819Y-46944224D01*
X31181559Y-46896422D01*
X31163471Y-46780150D01*
X31116962Y-46780150D01*
X31116962Y-47355050D01*
X31163471Y-47355050D01*
X31180266Y-47238778D01*
X31235818Y-47192271D01*
X31384388Y-47174186D01*
X31840433Y-47174186D01*
X32089772Y-47185811D01*
X32146616Y-47214233D01*
X32163411Y-47267201D01*
X32144034Y-47355050D01*
X32190543Y-47373135D01*
X32335237Y-47016567D01*
X32335237Y-46959722D01*
X32335235Y-46959727D01*
X31384389Y-46959727D01*
X32823578Y-46936466D01*
X32730560Y-46975226D01*
X32691803Y-47066951D01*
X32730560Y-47159969D01*
X32823578Y-47198730D01*
X32915303Y-47161265D01*
X32954060Y-47066955D01*
X32954060Y-47066951D01*
X32954060Y-47066951D01*
G37*
G36*
X32335235Y-45869351D02*
X31932159Y-45869351D01*
X31932159Y-45911980D01*
X32190541Y-46038591D01*
X32259012Y-46233669D01*
X32211211Y-46379655D01*
X32105275Y-46435205D01*
X31981251Y-46393862D01*
X31868855Y-46231082D01*
X31777129Y-46042463D01*
X31439941Y-45780205D01*
X31178975Y-45902936D01*
X31080789Y-46175530D01*
X31119546Y-46423577D01*
X31132466Y-46493342D01*
X31098877Y-46539850D01*
X31098877Y-46582479D01*
X31521332Y-46582479D01*
X31521332Y-46539850D01*
X31248738Y-46401615D01*
X31157013Y-46172947D01*
X31208689Y-46028253D01*
X31335296Y-45971408D01*
X31485158Y-46034713D01*
X31638895Y-46284052D01*
X31806844Y-46529515D01*
X31992879Y-46587647D01*
X32237050Y-46488171D01*
X32335235Y-46228496D01*
X32305521Y-46059256D01*
X32286144Y-45971406D01*
X32295186Y-45939106D01*
X32335235Y-45911979D01*
X32335235Y-45869349D01*
X32335235Y-45869351D01*
X32335235Y-45869351D01*
G37*
G36*
X32689219Y-45262152D02*
X32300354Y-45262152D01*
X32300354Y-44985683D01*
X32209920Y-44985683D01*
X32209920Y-45262152D01*
X31442525Y-45262152D01*
X31287495Y-45229851D01*
X31247446Y-45144585D01*
X31273284Y-45061900D01*
X31352091Y-44999890D01*
X31352091Y-44949505D01*
X31160888Y-45077404D01*
X31097584Y-45247936D01*
X31129882Y-45364208D01*
X31224192Y-45448180D01*
X31414102Y-45475308D01*
X32209919Y-45475308D01*
X32209919Y-45662635D01*
X32252553Y-45662635D01*
X32348154Y-45517941D01*
X32509643Y-45384874D01*
X32689218Y-45302189D01*
X32689218Y-45262142D01*
X32689219Y-45262152D01*
X32689219Y-45262152D01*
G37*
G36*
X32335235Y-44293219D02*
X32251261Y-44333273D01*
X32209920Y-44471507D01*
X32067810Y-44582611D01*
X31805552Y-44625241D01*
X31359843Y-44523180D01*
X31172516Y-44251879D01*
X31275869Y-44045173D01*
X31631144Y-43963783D01*
X32127238Y-44099434D01*
X32251261Y-44333270D01*
X32251261Y-44333273D01*
X32335235Y-44293219D01*
X32131113Y-43861721D01*
X31730621Y-43723487D01*
X31408935Y-43799712D01*
X31163472Y-44010293D01*
X31080790Y-44307433D01*
X31293955Y-44732471D01*
X31697031Y-44865538D01*
X32020009Y-44785444D01*
X32257721Y-44572278D01*
X32335235Y-44293226D01*
X32335235Y-44293219D01*
X32335235Y-44293219D01*
G37*
G36*
X32335235Y-43202846D02*
X32069102Y-43202846D01*
X32335235Y-42897955D01*
X32291310Y-42780391D01*
X32191833Y-42733884D01*
X32106567Y-42767471D01*
X32071685Y-42847566D01*
X32115610Y-42949626D01*
X32160827Y-43032312D01*
X32134990Y-43082697D01*
X31960582Y-43202844D01*
X31393433Y-43202844D01*
X31244863Y-43178299D01*
X31186728Y-43118872D01*
X31163473Y-42996141D01*
X31116963Y-42996141D01*
X31116963Y-43602047D01*
X31163473Y-43602047D01*
X31191894Y-43467688D01*
X31257782Y-43422468D01*
X31383097Y-43416033D01*
X31841726Y-43416033D01*
X32087189Y-43425076D01*
X32145324Y-43456080D01*
X32163412Y-43511630D01*
X32144034Y-43602064D01*
X32190544Y-43614984D01*
X32335237Y-43257124D01*
X32335237Y-43202861D01*
X32335235Y-43202846D01*
X32335235Y-43202846D01*
G37*
G36*
X32335235Y-41900601D02*
X31932159Y-41900601D01*
X31932159Y-41943230D01*
X32190541Y-42069841D01*
X32259012Y-42264919D01*
X32211211Y-42410905D01*
X32105275Y-42466455D01*
X31981251Y-42425112D01*
X31868855Y-42262332D01*
X31777129Y-42073713D01*
X31439941Y-41811455D01*
X31178975Y-41934186D01*
X31080789Y-42206780D01*
X31119546Y-42454827D01*
X31132466Y-42524592D01*
X31098877Y-42571100D01*
X31098877Y-42613729D01*
X31521332Y-42613729D01*
X31521332Y-42571100D01*
X31248738Y-42432865D01*
X31157013Y-42204197D01*
X31208689Y-42059503D01*
X31335296Y-42002658D01*
X31485158Y-42065963D01*
X31638895Y-42315302D01*
X31806844Y-42560765D01*
X31992879Y-42618897D01*
X32237050Y-42519421D01*
X32335235Y-42259746D01*
X32305521Y-42090506D01*
X32286144Y-42002656D01*
X32295186Y-41970356D01*
X32335235Y-41943229D01*
X32335235Y-41900599D01*
X32335235Y-41900601D01*
X32335235Y-41900601D01*
G37*
G36*
X29153465Y-60208277D02*
X29209020Y-60776717D01*
X29205143Y-60641066D01*
X29245192Y-60358138D01*
X29370507Y-60212152D01*
X29553958Y-60161768D01*
X29816216Y-60287083D01*
X29924739Y-60652694D01*
X29896318Y-60885238D01*
X29223232Y-60885238D01*
X29223230Y-60885238D01*
X29209020Y-60776717D01*
X29153465Y-60208277D01*
X28716803Y-60110091D01*
X28913173Y-60165644D01*
X29061743Y-60346511D01*
X29116003Y-60656569D01*
X29113435Y-60793512D01*
X29104393Y-60885238D01*
X28386090Y-60885238D01*
X28386074Y-60885238D01*
X28351192Y-60589390D01*
X28455837Y-60232823D01*
X28716803Y-60110091D01*
X29153465Y-60208277D01*
X29029442Y-59935684D01*
X28738762Y-59810369D01*
X28488131Y-59893051D01*
X28313723Y-60120427D01*
X28259463Y-60559677D01*
X28259463Y-61386500D01*
X28307264Y-61386500D01*
X28307264Y-61320612D01*
X28377028Y-61162999D01*
X28569522Y-61133285D01*
X29701236Y-61133285D01*
X29906650Y-61170750D01*
X29963494Y-61320612D01*
X29963494Y-61386499D01*
X30011295Y-61386499D01*
X30011295Y-60629440D01*
X29980290Y-60289667D01*
X29814925Y-59993820D01*
X29543624Y-59891758D01*
X29307204Y-59971857D01*
X29153467Y-60208276D01*
X29153465Y-60208277D01*
X29153465Y-60208277D01*
G37*
G36*
X29442853Y-59647588D02*
X29442853Y-59095942D01*
X29395053Y-59095942D01*
X29395053Y-59123072D01*
X29369216Y-59210922D01*
X29307204Y-59239344D01*
X29167678Y-59196711D01*
X28570815Y-58908614D01*
X29224522Y-58643773D01*
X29329167Y-58621810D01*
X29364048Y-58630852D01*
X29386011Y-58663150D01*
X29395053Y-58740665D01*
X29442854Y-58740665D01*
X29442854Y-58355676D01*
X29395053Y-58355676D01*
X29374383Y-58429315D01*
X29316247Y-58486159D01*
X29216770Y-58530084D01*
X28035963Y-59011967D01*
X27776290Y-59195419D01*
X27688440Y-59412460D01*
X27732365Y-59537775D01*
X27833133Y-59586867D01*
X27920983Y-59551985D01*
X27953284Y-59453800D01*
X27924861Y-59337528D01*
X27905481Y-59272933D01*
X27945528Y-59188959D01*
X28100557Y-59095941D01*
X28305973Y-59011967D01*
X29198683Y-59437006D01*
X29298160Y-59499017D01*
X29358880Y-59551986D01*
X29395053Y-59647587D01*
X29442854Y-59647587D01*
X29442853Y-59647588D01*
X29442853Y-59647588D01*
G37*
G36*
X29963493Y-57404831D02*
X30011294Y-57404831D01*
X30011294Y-56654231D01*
X29963493Y-56654231D01*
X29963493Y-56717534D01*
X29900190Y-56873855D01*
X29701235Y-56904861D01*
X28844699Y-56904861D01*
X28524305Y-56948786D01*
X28309847Y-57097356D01*
X28219414Y-57353154D01*
X28278841Y-57544357D01*
X28417075Y-57614120D01*
X28512677Y-57581822D01*
X28552726Y-57482345D01*
X28525596Y-57408706D01*
X28380902Y-57324732D01*
X28311139Y-57248509D01*
X28353772Y-57183913D01*
X28504926Y-57152908D01*
X29701235Y-57152908D01*
X29876935Y-57169703D01*
X29932487Y-57223963D01*
X29963493Y-57341527D01*
X29963493Y-57404831D01*
X29963493Y-57404831D01*
G37*
G36*
X29477735Y-55978561D02*
X29393761Y-56018611D01*
X29352420Y-56156845D01*
X29210310Y-56267949D01*
X28948052Y-56310582D01*
X28502343Y-56208521D01*
X28315016Y-55937220D01*
X28418369Y-55730514D01*
X28773644Y-55649124D01*
X29269738Y-55784775D01*
X29393761Y-56018611D01*
X29477735Y-55978561D01*
X29273613Y-55547063D01*
X28873121Y-55408829D01*
X28551435Y-55485051D01*
X28305972Y-55695633D01*
X28223290Y-55992772D01*
X28436455Y-56417811D01*
X28839531Y-56550878D01*
X29162509Y-56470780D01*
X29400220Y-56257614D01*
X29477735Y-55978562D01*
X29477735Y-55978561D01*
X29477735Y-55978561D01*
G37*
G36*
X30096560Y-54886897D02*
X29230980Y-54886897D01*
X29432518Y-54659520D01*
X29477735Y-54491572D01*
X29422183Y-54318456D01*
X29247775Y-54211227D01*
X28945468Y-54186680D01*
X28526889Y-54186680D01*
X28373151Y-54168592D01*
X28324059Y-54124667D01*
X28305971Y-54010979D01*
X28259462Y-54010979D01*
X28259462Y-54592338D01*
X28305971Y-54592338D01*
X28305971Y-54565208D01*
X28330519Y-54450228D01*
X28405450Y-54405011D01*
X28526890Y-54401133D01*
X28945469Y-54401133D01*
X29199975Y-54421803D01*
X29290409Y-54485107D01*
X29321415Y-54591044D01*
X29287825Y-54722819D01*
X29152174Y-54886891D01*
X28526889Y-54886891D01*
X28375736Y-54873971D01*
X28325351Y-54823587D01*
X28305974Y-54695688D01*
X28259465Y-54695688D01*
X28259465Y-55282215D01*
X28305974Y-55282215D01*
X28330522Y-55158192D01*
X28379614Y-55116851D01*
X28526892Y-55101348D01*
X29597886Y-55101348D01*
X29847224Y-55111683D01*
X29910528Y-55141397D01*
X29927323Y-55194365D01*
X29906653Y-55282215D01*
X29951870Y-55300303D01*
X30096564Y-54946319D01*
X30096564Y-54886892D01*
X30096560Y-54886897D01*
X30096560Y-54886897D01*
G37*
G36*
X29227104Y-53566564D02*
X29477735Y-53169947D01*
X29428643Y-53003290D01*
X29269738Y-52892186D01*
X29032026Y-52863764D01*
X28526889Y-52863764D01*
X28374444Y-52845679D01*
X28324059Y-52800459D01*
X28305972Y-52682895D01*
X28259463Y-52682895D01*
X28259463Y-53268131D01*
X28305972Y-53268131D01*
X28305972Y-53243586D01*
X28330519Y-53128606D01*
X28405450Y-53082099D01*
X28526890Y-53076934D01*
X29011356Y-53076934D01*
X29245192Y-53119564D01*
X29318831Y-53260381D01*
X29150883Y-53566565D01*
X28526890Y-53566565D01*
X28378320Y-53552349D01*
X28322768Y-53503260D01*
X28305973Y-53374068D01*
X28259463Y-53374068D01*
X28259463Y-53959304D01*
X28305973Y-53959304D01*
X28305973Y-53933466D01*
X28351190Y-53812027D01*
X28526889Y-53779727D01*
X28966139Y-53779727D01*
X29225813Y-53790065D01*
X29289117Y-53819774D01*
X29305912Y-53872742D01*
X29286534Y-53959300D01*
X29333044Y-53978677D01*
X29477737Y-53622109D01*
X29477737Y-53566559D01*
X29227107Y-53566559D01*
X29227104Y-53566564D01*
X29227104Y-53566564D01*
G37*
G36*
X28845991Y-50943985D02*
X28941592Y-50980158D01*
X29649559Y-51277298D01*
X28941592Y-51582189D01*
X28941592Y-50980158D01*
X28845991Y-50943985D01*
X28845991Y-51622238D01*
X28569522Y-51741094D01*
X28417076Y-51785019D01*
X28346021Y-51747554D01*
X28307264Y-51582190D01*
X28259463Y-51582190D01*
X28259463Y-52133836D01*
X28307264Y-52133836D01*
X28357649Y-51991725D01*
X28609571Y-51845739D01*
X30051344Y-51229498D01*
X30051344Y-51184278D01*
X28594068Y-50574496D01*
X28365400Y-50441429D01*
X28307264Y-50273480D01*
X28259463Y-50273480D01*
X28259463Y-50964653D01*
X28307264Y-50964653D01*
X28342145Y-50823835D01*
X28414492Y-50786370D01*
X28594068Y-50838050D01*
X28845991Y-50943985D01*
X28845991Y-50943985D01*
G37*
G36*
X29477735Y-49813562D02*
X29211601Y-49813562D01*
X29477735Y-49508672D01*
X29433810Y-49391108D01*
X29334333Y-49344601D01*
X29249067Y-49378188D01*
X29214185Y-49458282D01*
X29258110Y-49560343D01*
X29303327Y-49643029D01*
X29277489Y-49693414D01*
X29103082Y-49813561D01*
X28535933Y-49813561D01*
X28387363Y-49789016D01*
X28329227Y-49729588D01*
X28305972Y-49606857D01*
X28259463Y-49606857D01*
X28259463Y-50212763D01*
X28305972Y-50212763D01*
X28334393Y-50078405D01*
X28400281Y-50033184D01*
X28525596Y-50026750D01*
X28984224Y-50026750D01*
X29229688Y-50035792D01*
X29287824Y-50066797D01*
X29305912Y-50122347D01*
X29286534Y-50212780D01*
X29333043Y-50225700D01*
X29477737Y-49867841D01*
X29477737Y-49813578D01*
X29477735Y-49813562D01*
X29477735Y-49813562D01*
G37*
G36*
X30096560Y-48975113D02*
X30057803Y-48883387D01*
X29966078Y-48844627D01*
X28526889Y-48867887D01*
X28378319Y-48852385D01*
X28324058Y-48804582D01*
X28305971Y-48688310D01*
X28259462Y-48688310D01*
X28259462Y-49263210D01*
X28305971Y-49263210D01*
X28322766Y-49146939D01*
X28378318Y-49100431D01*
X28526888Y-49082346D01*
X28982932Y-49082346D01*
X29232271Y-49093971D01*
X29289116Y-49122394D01*
X29305911Y-49175361D01*
X29286533Y-49263211D01*
X29333042Y-49281296D01*
X29477737Y-48924729D01*
X29477737Y-48867884D01*
X29477735Y-48867887D01*
X28526889Y-48867887D01*
X29966078Y-48844627D01*
X29873060Y-48883387D01*
X29834303Y-48975113D01*
X29873060Y-49068130D01*
X29966078Y-49106890D01*
X30057803Y-49069425D01*
X30096560Y-48975116D01*
X30096560Y-48975113D01*
X30096560Y-48975113D01*
G37*
G36*
X30096560Y-48135371D02*
X28526889Y-48135371D01*
X28379611Y-48119868D01*
X28324058Y-48069483D01*
X28305971Y-47944168D01*
X28259462Y-47944168D01*
X28259462Y-48524236D01*
X28305971Y-48524236D01*
X28322766Y-48413132D01*
X28378318Y-48366624D01*
X28526888Y-48349826D01*
X29601758Y-48349826D01*
X29847221Y-48358869D01*
X29910524Y-48388578D01*
X29927319Y-48438964D01*
X29906649Y-48524230D01*
X29951867Y-48546192D01*
X30096560Y-48193500D01*
X30096560Y-48135368D01*
X30096560Y-48135371D01*
X30096560Y-48135371D01*
G37*
G36*
X28392530Y-46972651D02*
X29092742Y-46972674D01*
X29252939Y-47019181D01*
X29361460Y-47122535D01*
X29398925Y-47246558D01*
X29296863Y-47449388D01*
X28904123Y-47566952D01*
X28503631Y-47453264D01*
X28365396Y-47200049D01*
X28482960Y-46972673D01*
X28482960Y-46972674D01*
X29092742Y-46972674D01*
X28392530Y-46972651D01*
X28262047Y-47141891D01*
X28223286Y-47320175D01*
X28384775Y-47658655D01*
X28802062Y-47803350D01*
X29267150Y-47643153D01*
X29479024Y-47231034D01*
X29379546Y-46972651D01*
X29597879Y-46972651D01*
X29847218Y-46982989D01*
X29910522Y-47012707D01*
X29927317Y-47064388D01*
X29906647Y-47153530D01*
X29951864Y-47170328D01*
X30096558Y-46817636D01*
X30096558Y-46759504D01*
X28728424Y-46759504D01*
X28473918Y-46750461D01*
X28410614Y-46719456D01*
X28392527Y-46669071D01*
X28414489Y-46576054D01*
X28369272Y-46561847D01*
X28223286Y-46913247D01*
X28223286Y-46972674D01*
X28392526Y-46972674D01*
X28392530Y-46972651D01*
X28392530Y-46972651D01*
G37*
G36*
X28743930Y-44390121D02*
X28734887Y-44347492D01*
X28259464Y-44497353D01*
X28259464Y-45853860D01*
X28307265Y-45853860D01*
X28307265Y-45787972D01*
X28379612Y-45629067D01*
X28570815Y-45601940D01*
X29701237Y-45601940D01*
X29906650Y-45638118D01*
X29963494Y-45787980D01*
X29963494Y-45853868D01*
X30011295Y-45853868D01*
X30011295Y-45060634D01*
X29963494Y-45060634D01*
X29937656Y-45257005D01*
X29869185Y-45333230D01*
X29671522Y-45353897D01*
X28570814Y-45353897D01*
X28423536Y-45333230D01*
X28383487Y-45285427D01*
X28370567Y-45083889D01*
X28370567Y-44955990D01*
X28400281Y-44673061D01*
X28504926Y-44524492D01*
X28743929Y-44390133D01*
X28743930Y-44390121D01*
X28743930Y-44390121D01*
G37*
G36*
X29477735Y-43627894D02*
X29273613Y-43196396D01*
X28773644Y-43298450D01*
X29269738Y-43434100D01*
X29393761Y-43667937D01*
X29393761Y-43667939D01*
X29352420Y-43806174D01*
X29210310Y-43917278D01*
X28948052Y-43959907D01*
X28502343Y-43857847D01*
X28315016Y-43586545D01*
X28418369Y-43379840D01*
X28773644Y-43298450D01*
X29273613Y-43196396D01*
X28873121Y-43058162D01*
X28551435Y-43134387D01*
X28305972Y-43344968D01*
X28223290Y-43642108D01*
X28436455Y-44067146D01*
X28839531Y-44200213D01*
X29162509Y-44120110D01*
X29400220Y-43906945D01*
X29477735Y-43627892D01*
X29477735Y-43627894D01*
X29477735Y-43627894D01*
G37*
G36*
X30096560Y-42476801D02*
X28526889Y-42476801D01*
X28379611Y-42461299D01*
X28324058Y-42410914D01*
X28305971Y-42285599D01*
X28259462Y-42285599D01*
X28259462Y-42865667D01*
X28305971Y-42865667D01*
X28322766Y-42754562D01*
X28378318Y-42708055D01*
X28526888Y-42691257D01*
X29601758Y-42691257D01*
X29847221Y-42700299D01*
X29910524Y-42730009D01*
X29927319Y-42780394D01*
X29906649Y-42865660D01*
X29951867Y-42887623D01*
X30096560Y-42534931D01*
X30096560Y-42476799D01*
X30096560Y-42476801D01*
X30096560Y-42476801D01*
G37*
G36*
X30096560Y-41742996D02*
X28526889Y-41742996D01*
X28379611Y-41727494D01*
X28324058Y-41677108D01*
X28305971Y-41551793D01*
X28259462Y-41551793D01*
X28259462Y-42131861D01*
X28305971Y-42131861D01*
X28322766Y-42020757D01*
X28378318Y-41974250D01*
X28526888Y-41957452D01*
X29601758Y-41957452D01*
X29847221Y-41966494D01*
X29910524Y-41996212D01*
X29927319Y-42046597D01*
X29906649Y-42131863D01*
X29951867Y-42153826D01*
X30096560Y-41801134D01*
X30096560Y-41743002D01*
X30096560Y-41742996D01*
X30096560Y-41742996D01*
G37*
G36*
X28429995Y-40745641D02*
X28513967Y-40745632D01*
X28964844Y-40745632D01*
X28855031Y-40997555D01*
X28736175Y-41143541D01*
X28600525Y-41187466D01*
X28445496Y-41131916D01*
X28384776Y-41004017D01*
X28513967Y-40745635D01*
X28513967Y-40745632D01*
X28429995Y-40745641D01*
X28267215Y-40974309D01*
X28234915Y-41122879D01*
X28318889Y-41325709D01*
X28539805Y-41404517D01*
X28689667Y-41365756D01*
X28855032Y-41182305D01*
X29043651Y-40745639D01*
X29090160Y-40745639D01*
X29333039Y-40802484D01*
X29398927Y-40965265D01*
X29355002Y-41094456D01*
X29254232Y-41143546D01*
X29179302Y-41140921D01*
X29087576Y-41171926D01*
X29055278Y-41250734D01*
X29088868Y-41329542D01*
X29180593Y-41359260D01*
X29384715Y-41245572D01*
X29477733Y-40926469D01*
X29424765Y-40668088D01*
X29299449Y-40555691D01*
X29072073Y-40532433D01*
X28670289Y-40532433D01*
X28462291Y-40525998D01*
X28411907Y-40505331D01*
X28398987Y-40470448D01*
X28408029Y-40434279D01*
X28502339Y-40329633D01*
X28429992Y-40329633D01*
X28236205Y-40606103D01*
X28280131Y-40706872D01*
X28429993Y-40745632D01*
X28429995Y-40745641D01*
X28429995Y-40745641D01*
G37*
G36*
X29227104Y-39898148D02*
X29477735Y-39501531D01*
X29428643Y-39334875D01*
X29269738Y-39223770D01*
X29032026Y-39195347D01*
X28526889Y-39195347D01*
X28374444Y-39177262D01*
X28324059Y-39132050D01*
X28305972Y-39014487D01*
X28259463Y-39014487D01*
X28259463Y-39599722D01*
X28305972Y-39599722D01*
X28305972Y-39575177D01*
X28330519Y-39460197D01*
X28405450Y-39413690D01*
X28526890Y-39408525D01*
X29011356Y-39408525D01*
X29245192Y-39451155D01*
X29318831Y-39591973D01*
X29150883Y-39898156D01*
X28526890Y-39898156D01*
X28378320Y-39883940D01*
X28322768Y-39834851D01*
X28305973Y-39705660D01*
X28259463Y-39705660D01*
X28259463Y-40290895D01*
X28305973Y-40290895D01*
X28305973Y-40265055D01*
X28351190Y-40143616D01*
X28526889Y-40111315D01*
X28966139Y-40111315D01*
X29225813Y-40121653D01*
X29289117Y-40151363D01*
X29305912Y-40204330D01*
X29286534Y-40290888D01*
X29333044Y-40310268D01*
X29477737Y-39953702D01*
X29477737Y-39898152D01*
X29227107Y-39898152D01*
X29227104Y-39898148D01*
X29227104Y-39898148D01*
G37*
G36*
X28392530Y-38084305D02*
X29092742Y-38084328D01*
X29252939Y-38130835D01*
X29361460Y-38234188D01*
X29398925Y-38358211D01*
X29296863Y-38561041D01*
X28904123Y-38678605D01*
X28503631Y-38564917D01*
X28365396Y-38311702D01*
X28482960Y-38084326D01*
X28482960Y-38084328D01*
X29092742Y-38084328D01*
X28392530Y-38084305D01*
X28262047Y-38253545D01*
X28223286Y-38431828D01*
X28384775Y-38770310D01*
X28802062Y-38915003D01*
X29267150Y-38754806D01*
X29479024Y-38342687D01*
X29379546Y-38084305D01*
X29597879Y-38084305D01*
X29847218Y-38094643D01*
X29910522Y-38124361D01*
X29927317Y-38176041D01*
X29906647Y-38265183D01*
X29951864Y-38281981D01*
X30096558Y-37929289D01*
X30096558Y-37871157D01*
X28728424Y-37871157D01*
X28473918Y-37862115D01*
X28410614Y-37831110D01*
X28392527Y-37780725D01*
X28414489Y-37687707D01*
X28369272Y-37673500D01*
X28223286Y-38024900D01*
X28223286Y-38084328D01*
X28392526Y-38084328D01*
X28392530Y-38084305D01*
X28392530Y-38084305D01*
G37*
G04 #@! TD*
M02*
