G04 #@! TF.GenerationSoftware,KiCad,Pcbnew,(5.0.0)*
G04 #@! TF.CreationDate,2018-10-07T14:33:42+02:00*
G04 #@! TF.ProjectId,LED-panel,4C45442D70616E656C2E6B696361645F,rev?*
G04 #@! TF.SameCoordinates,Original*
G04 #@! TF.FileFunction,Legend,Top*
G04 #@! TF.FilePolarity,Positive*
%FSLAX46Y46*%
G04 Gerber Fmt 4.6, Leading zero omitted, Abs format (unit mm)*
G04 Created by KiCad (PCBNEW (5.0.0)) date 10/07/18 14:33:42*
%MOMM*%
%LPD*%
G01*
G04 APERTURE LIST*
%ADD10C,0.300000*%
%ADD11C,0.050000*%
%ADD12C,0.120000*%
%ADD13C,0.150000*%
G04 APERTURE END LIST*
D10*
X28702142Y-34810000D02*
X28559285Y-34738571D01*
X28345000Y-34738571D01*
X28130714Y-34810000D01*
X27987857Y-34952857D01*
X27916428Y-35095714D01*
X27845000Y-35381428D01*
X27845000Y-35595714D01*
X27916428Y-35881428D01*
X27987857Y-36024285D01*
X28130714Y-36167142D01*
X28345000Y-36238571D01*
X28487857Y-36238571D01*
X28702142Y-36167142D01*
X28773571Y-36095714D01*
X28773571Y-35595714D01*
X28487857Y-35595714D01*
X29416428Y-36238571D02*
X29416428Y-34738571D01*
X30273571Y-36238571D01*
X30273571Y-34738571D01*
X30987857Y-36238571D02*
X30987857Y-34738571D01*
X31345000Y-34738571D01*
X31559285Y-34810000D01*
X31702142Y-34952857D01*
X31773571Y-35095714D01*
X31845000Y-35381428D01*
X31845000Y-35595714D01*
X31773571Y-35881428D01*
X31702142Y-36024285D01*
X31559285Y-36167142D01*
X31345000Y-36238571D01*
X30987857Y-36238571D01*
D11*
G04 #@! TO.C,D1*
X28075000Y-37400000D02*
X31115000Y-37400000D01*
X31115000Y-37400000D02*
X31115000Y-38800000D01*
X31115000Y-38800000D02*
X28075000Y-38800000D01*
X28075000Y-38800000D02*
X28075000Y-37400000D01*
G04 #@! TO.C,D2*
X28075000Y-41340000D02*
X28075000Y-39940000D01*
X31115000Y-41340000D02*
X28075000Y-41340000D01*
X31115000Y-39940000D02*
X31115000Y-41340000D01*
X28075000Y-39940000D02*
X31115000Y-39940000D01*
G04 #@! TO.C,D3*
X28075000Y-42480000D02*
X31115000Y-42480000D01*
X31115000Y-42480000D02*
X31115000Y-43880000D01*
X31115000Y-43880000D02*
X28075000Y-43880000D01*
X28075000Y-43880000D02*
X28075000Y-42480000D01*
G04 #@! TO.C,D4*
X28075000Y-46420000D02*
X28075000Y-45020000D01*
X31115000Y-46420000D02*
X28075000Y-46420000D01*
X31115000Y-45020000D02*
X31115000Y-46420000D01*
X28075000Y-45020000D02*
X31115000Y-45020000D01*
G04 #@! TO.C,D5*
X28075000Y-47560000D02*
X31115000Y-47560000D01*
X31115000Y-47560000D02*
X31115000Y-48960000D01*
X31115000Y-48960000D02*
X28075000Y-48960000D01*
X28075000Y-48960000D02*
X28075000Y-47560000D01*
G04 #@! TO.C,D6*
X28075000Y-51500000D02*
X28075000Y-50100000D01*
X31115000Y-51500000D02*
X28075000Y-51500000D01*
X31115000Y-50100000D02*
X31115000Y-51500000D01*
X28075000Y-50100000D02*
X31115000Y-50100000D01*
G04 #@! TO.C,D7*
X28075000Y-52640000D02*
X31115000Y-52640000D01*
X31115000Y-52640000D02*
X31115000Y-54040000D01*
X31115000Y-54040000D02*
X28075000Y-54040000D01*
X28075000Y-54040000D02*
X28075000Y-52640000D01*
G04 #@! TO.C,D8*
X28075000Y-56580000D02*
X28075000Y-55180000D01*
X31115000Y-56580000D02*
X28075000Y-56580000D01*
X31115000Y-55180000D02*
X31115000Y-56580000D01*
X28075000Y-55180000D02*
X31115000Y-55180000D01*
G04 #@! TO.C,D9*
X28075000Y-57720000D02*
X31115000Y-57720000D01*
X31115000Y-57720000D02*
X31115000Y-59120000D01*
X31115000Y-59120000D02*
X28075000Y-59120000D01*
X28075000Y-59120000D02*
X28075000Y-57720000D01*
G04 #@! TO.C,D10*
X28075000Y-61660000D02*
X28075000Y-60260000D01*
X31115000Y-61660000D02*
X28075000Y-61660000D01*
X31115000Y-60260000D02*
X31115000Y-61660000D01*
X28075000Y-60260000D02*
X31115000Y-60260000D01*
G04 #@! TO.C,D11*
X28075000Y-62800000D02*
X31115000Y-62800000D01*
X31115000Y-62800000D02*
X31115000Y-64200000D01*
X31115000Y-64200000D02*
X28075000Y-64200000D01*
X28075000Y-64200000D02*
X28075000Y-62800000D01*
D12*
G04 #@! TO.C,J1*
X24070000Y-64830000D02*
X26730000Y-64830000D01*
X24070000Y-36830000D02*
X24070000Y-64830000D01*
X26730000Y-36830000D02*
X26730000Y-64830000D01*
X24070000Y-36830000D02*
X26730000Y-36830000D01*
X24070000Y-35560000D02*
X24070000Y-34230000D01*
X24070000Y-34230000D02*
X25400000Y-34230000D01*
G04 #@! TO.C,R1*
X33817936Y-39010000D02*
X35022064Y-39010000D01*
X33817936Y-37190000D02*
X35022064Y-37190000D01*
G04 #@! TO.C,R2*
X33817936Y-39730000D02*
X35022064Y-39730000D01*
X33817936Y-41550000D02*
X35022064Y-41550000D01*
G04 #@! TO.C,R3*
X33817936Y-44090000D02*
X35022064Y-44090000D01*
X33817936Y-42270000D02*
X35022064Y-42270000D01*
G04 #@! TO.C,R4*
X33817936Y-44810000D02*
X35022064Y-44810000D01*
X33817936Y-46630000D02*
X35022064Y-46630000D01*
G04 #@! TO.C,R5*
X33817936Y-49170000D02*
X35022064Y-49170000D01*
X33817936Y-47350000D02*
X35022064Y-47350000D01*
G04 #@! TO.C,R6*
X33817936Y-49890000D02*
X35022064Y-49890000D01*
X33817936Y-51710000D02*
X35022064Y-51710000D01*
G04 #@! TO.C,R7*
X33817936Y-54250000D02*
X35022064Y-54250000D01*
X33817936Y-52430000D02*
X35022064Y-52430000D01*
G04 #@! TO.C,R8*
X33817936Y-54970000D02*
X35022064Y-54970000D01*
X33817936Y-56790000D02*
X35022064Y-56790000D01*
G04 #@! TO.C,R9*
X33817936Y-59330000D02*
X35022064Y-59330000D01*
X33817936Y-57510000D02*
X35022064Y-57510000D01*
G04 #@! TO.C,R10*
X33817936Y-60050000D02*
X35022064Y-60050000D01*
X33817936Y-61870000D02*
X35022064Y-61870000D01*
G04 #@! TO.C,R11*
X33817936Y-62590000D02*
X35022064Y-62590000D01*
X33817936Y-64410000D02*
X35022064Y-64410000D01*
G04 #@! TO.C,J1*
D13*
X25066666Y-32682380D02*
X25066666Y-33396666D01*
X25019047Y-33539523D01*
X24923809Y-33634761D01*
X24780952Y-33682380D01*
X24685714Y-33682380D01*
X26066666Y-33682380D02*
X25495238Y-33682380D01*
X25780952Y-33682380D02*
X25780952Y-32682380D01*
X25685714Y-32825238D01*
X25590476Y-32920476D01*
X25495238Y-32968095D01*
G04 #@! TD*
M02*
